<?xml version="1.0" encoding="utf-8"?>
<!-- Generator: Adobe Illustrator 18.1.0, SVG Export Plug-In . SVG Version: 6.00 Build 0)  -->
<!DOCTYPE svg PUBLIC "-//W3C//DTD SVG 1.1//EN" "http://www.w3.org/Graphics/SVG/1.1/DTD/svg11.dtd">
<svg xmlns="http://www.w3.org/2000/svg" xmlns:xlink="http://www.w3.org/1999/xlink" version="1.1" id="Layer_1" x="0px" y="0px" viewBox="0 0 26 26" enable-background="new 0 0 26 26" xml:space="preserve" width="14px" height="14px">
<path d="M13,0C5.8,0,0,5.8,0,13s5.8,13,13,13s13-5.8,13-13S20.2,0,13,0z M18.3,19.1c-0.2,0-0.4-0.1-0.6-0.2  c-1.9-1.1-4.2-1.7-6.7-1.7c-1.4,0-2.8,0.2-4.1,0.5c-0.2,0-0.5,0.1-0.6,0.1c-0.5,0-0.8-0.4-0.8-0.8c0-0.5,0.3-0.8,0.7-0.9  c1.6-0.4,3.2-0.6,4.9-0.6c2.8,0,5.4,0.7,7.6,2c0.3,0.2,0.5,0.4,0.5,0.9C19.1,18.8,18.7,19.1,18.3,19.1z M19.7,15.7  c-0.3,0-0.5-0.1-0.7-0.2c-2.1-1.3-5-2.1-8.3-2.1c-1.6,0-3.1,0.2-4.2,0.5c-0.3,0.1-0.4,0.1-0.6,0.1c-0.6,0-1-0.5-1-1  c0-0.6,0.3-0.9,0.8-1.1c1.5-0.4,3-0.7,5.1-0.7c3.4,0,6.7,0.8,9.3,2.4c0.4,0.2,0.6,0.6,0.6,1C20.7,15.2,20.3,15.7,19.7,15.7z   M21.3,11.7c-0.3,0-0.4-0.1-0.7-0.2c-2.4-1.4-6-2.2-9.5-2.2c-1.8,0-3.6,0.2-5.2,0.6c-0.2,0-0.4,0.1-0.7,0.1C4.5,10.1,4,9.5,4,8.8  c0-0.7,0.4-1.1,0.9-1.2C6.8,7,8.8,6.8,11.1,6.8c3.8,0,7.8,0.8,10.8,2.5c0.4,0.2,0.7,0.6,0.7,1.2C22.5,11.2,22,11.7,21.3,11.7z"/>
</svg>
