<svg xmlns="http://www.w3.org/2000/svg" xmlns:xlink="http://www.w3.org/1999/xlink" width="1144" height="774.71" data-name="Layer 1"><defs><linearGradient id="a" x1="158.36" x2="158.36" y1="837.36" y2="581.62" gradientUnits="userSpaceOnUse"><stop offset="0" stop-color="gray" stop-opacity=".25"/><stop offset=".54" stop-color="gray" stop-opacity=".12"/><stop offset="1" stop-color="gray" stop-opacity=".1"/></linearGradient><linearGradient id="b" x1="-1003.13" x2="-1003.13" y1="469.49" y2="167.61" gradientTransform="matrix(-1 0 0 1 -573.82 0)" xlink:href="#a"/><linearGradient id="c" x1="980.32" x2="980.32" y1="824.83" y2="557.01" xlink:href="#a"/></defs><path fill="#1890ff" d="M1144 461.36c0-71.09-30.06-133.88-76-171.64q.95-10.77 1-21.85c0-115.43-79.24-209-177-209-31.18 0-60.47 9.54-85.91 26.25C736.9 32.12 646.57.04 547.75.04c-160.79 0-299.1 84.93-360.46 206.72-3.41-.23-6.84-.36-10.3-.36-97.74 0-177 93.57-177 209 0 42.44 10.72 81.92 29.12 114.88 0 103.85 84.19 188 188 188h753.13a147.64 147.64 0 0 0 147.64-147.64c16.56-31.8 26.12-69.28 26.12-109.28z" opacity=".1"/><path fill="#1890ff" d="M651.52 664.63s-12.29-8.11-24.47-2.34c0 0 3.75 7.23 19.17 6.54zM653 665.06s3.74 14.25-5.64 23.93c0 0-5.64-5.87 0-20.25zM668.35 651.36s-.9-12.11-28.25-8.09c0 0-.13 7.81 9.47 11.52s13.99.57 18.78-3.43zM670 651.36s11.56 3.72 1.25 29.36c0 0-7.63-1.7-9-11.9s2.75-13.79 7.75-17.46zM685.52 634.13s1.56-19.93-26.38-17.88c0 0-2 18 21.45 22.67zM704 611.63s-3.83-22.58-31.77-15.85c0 0-.1 19.52 27.21 21.23zM717.48 588.36s-6.41-22-34.09-15.41c0 0 6.59 19.78 32.26 19.47zM730.31 565.66s-6.28-22.84-33-16c0 0 8.91 21.69 31.23 19.86zM738.57 544.08s-4.82-27.93-29.74-21.75c0 0 7.24 25.4 27.91 25.81zM746.32 518s-5.79-28.14-31-20c0 0 9.89 26.6 29.22 23.85zM751.12 493.74s-9.19-28.14-28.68-27.38c0 0 9.39 29.72 27 33zM754.16 470.06s-10-33.88-25.86-31.26c0 0 6.92 25.89 25.3 36.54zM755.89 441.78s-9.37-28.23-25-29.35c0 0 6.38 27.77 24.69 36.69zM757.79 415.45s-11.69-28.26-22-28.9c0 0 5.08 27.83 21 33.54zM759.09 390.93s-7.19-30.69-17.53-33.24c0 0 1.42 25.11 16.49 35.54zM763 358.85s-7.58-24.49-15.95-28.19c0 0 1.65 28.84 14 34.17zM766.21 337.77l1.52-43.14s-15.62 32.56-2.67 50.75zM778.29 294.9s11.27-31.5 14-33.25c0 0-22.09 20.43-19.94 46.72zM686.28 633.98s19.82-2.62 19.23 25.38c0 0-17.91 2.92-23.76-20.24zM704.93 610.88s22.9-.08 21 28.59c0 0-19.22 3.44-25.56-23.18zM717.71 590.23s20.79-9.75 34.09 15.41c0 0-19.2 8.13-35.93-11.35zM730.77 565.87s21.29-10.38 33.79 14.21c0 0-22.18 7.63-35.55-10.33zM738.3 544.68s20.49-19.57 36.84.22c0 0-20.93 16.11-37.78 4.14z"/><path fill="#1890ff" d="M745.16 517.36s20.61-20 36.83.93c0 0-23.14 16.42-37.57 3.28zM749 492.94s15.88-25 34.58-19.41c0 0-16.48 26.46-34.4 25.28zM753.69 469.91s16-31.49 31.14-26c0 0-11.54 24.19-31.55 31.31zM754.79 440.18s16.46-24.79 31.86-21.76c0 0-13.44 25.13-33.45 28.93zM756.05 414.9s12.75-27.8 23.11-28.05c0 0-6.12 27.62-22.25 32.72zM758.58 390.36s14.17-28.16 24.81-28.22c0 0-7.25 24.08-24.34 30.7zM760.71 360.58s10.6-23.31 19.37-26c0 0-5.3 28.4-18.21 32.13z"/><path fill="#1890ff" d="M767.47 336.96l23.69-36.09s-6.07 35.6-27.15 43zM783.73 297.8s27.53-19 28.53-22.07c0 0-14 26.62-40 31.32zM785.38 289.26s31.61-30.39 39.68-30.36c0 0-26.07 1.2-40.44 28.74z"/><path fill="#444053" d="M761 365.09l1.16.14c5.94-46.49 14.6-74 24.38-77.37l-.38-1.1c-10.36 3.6-19.06 30.69-25.16 78.33z"/><path fill="#444053" d="M752.28 476.26l1.74.15c.37-4.35.65-8.79.84-13.21 1.66-38.49 4.23-73.82 7.61-100.32l-1-1.24c-3.39 26.54-6.68 63-8.34 101.48-.2 4.4-.48 8.82-.85 13.14z"/><path fill="#444053" d="M619.06 686.76c.3-.13 30.93-13.81 62.72-46.43a252.22 252.22 0 0 0 45.85-65c14.7-29.92 23.66-66.71 26.66-102.44l-1.81.86c-6.75 80.19-43.26 135-72.29 164.84-31.48 32.34-61.77 45.87-62.07 46z"/><path fill="#fff" d="M667.27 104.27v98.18c0 5.18-5 9.4-11.17 9.4H419.7c-6.17 0-11.17-4.22-11.17-9.4v-98.18c0-5.19 5-10.48 11.17-10.48h236.4c6.18 0 11.17 5.29 11.17 10.48z"/><path fill="#1890ff" d="M667.27 104.95v27.41H408.53v-27.4A11.16 11.16 0 0 1 419.7 93.8h236.4a11.15 11.15 0 0 1 11.17 11.15z" opacity=".2"/><circle cx="422.72" cy="113.06" r="7.47" fill="#fff"/><circle cx="444.45" cy="113.06" r="7.47" fill="#fff"/><circle cx="466.18" cy="113.06" r="7.47" fill="#fff"/><circle cx="459.79" cy="171.46" r="29.2" fill="#1890ff" opacity=".2"/><path fill="#1890ff" d="M522.08 151.81h123.14v4.35H522.08z"/><path fill="#1890ff" d="M522.08 162.41h123.14v4.35H522.08zM522.08 173h123.14v4.35H522.08zM522.08 183.59h123.14v4.35H522.08z" opacity=".2"/><path fill="#fff" d="M963.59 46.5v174.24c0 5.18-5 9.4-11.17 9.4H716c-6.17 0-11.17-4.22-11.17-9.4V46.5c0-5.19 5-10.48 11.17-10.48h236.42c6.17 0 11.17 5.34 11.17 10.48z"/><path fill="#1890ff" d="M963.59 47.19v27.39H704.84V47.19A11.17 11.17 0 0 1 716 36.02h236.42a11.17 11.17 0 0 1 11.17 11.17z" opacity=".2"/><circle cx="719.03" cy="55.29" r="7.47" fill="#fff"/><circle cx="740.76" cy="55.29" r="7.47" fill="#fff"/><circle cx="762.49" cy="55.29" r="7.47" fill="#fff"/><circle cx="756.1" cy="113.69" r="29.2" fill="#1890ff" opacity=".2"/><path fill="#1890ff" d="M818.39 94.05h123.14v4.35H818.39z"/><path fill="#1890ff" d="M818.39 104.64h123.14v4.35H818.39zM818.39 115.23h123.14v4.35H818.39zM818.39 125.83h123.14v4.35H818.39z" opacity=".2"/><circle cx="756.1" cy="182.01" r="29.2" fill="#1890ff" opacity=".2"/><path fill="#1890ff" d="M818.39 162.36h123.14v4.35H818.39z"/><path fill="#1890ff" d="M818.39 172.96h123.14v4.35H818.39zM818.39 183.55h123.14v4.35H818.39zM818.39 194.14h123.14v4.35H818.39z" opacity=".2"/><path fill="#fff" d="M629.68 302.12v377.79c0 11.23-10.84 20.37-24.22 20.37H92.89c-13.38 0-24.22-9.14-24.22-20.37V302.12c0-11.25 10.84-22.72 24.22-22.72h512.57c13.38-.04 24.22 11.47 24.22 22.72z"/><path fill="#1890ff" d="M629.68 303.62V363h-561v-59.38a24.21 24.21 0 0 1 24.21-24.26h512.57a24.21 24.21 0 0 1 24.22 24.26z" opacity=".2"/><circle cx="99.44" cy="321.2" r="16.19" fill="#fff"/><circle cx="146.56" cy="321.2" r="16.19" fill="#fff"/><circle cx="193.67" cy="321.2" r="16.19" fill="#fff"/><path fill="#1890ff" d="M458.24 565.36a16.15 16.15 0 0 1 2.2-8.13 23.43 23.43 0 0 1 1.4-2.07 108 108 0 0 0 18.41-60.22c.2-61.49-51.69-111.38-115.84-111.38-56 0-102.64 38.08-113.58 88.63a107.28 107.28 0 0 0-2.47 22.81c0 61.56 49.89 112.78 114.05 112.78 10.2 0 23.94-3.07 31.47-5.13s15-4.81 16.94-5.54a17.75 17.75 0 0 1 6.21-1.13 17.27 17.27 0 0 1 6.73 1.33l37.82 13.41a9.09 9.09 0 0 0 2.6.66 5.3 5.3 0 0 0 5.33-5.33 8.59 8.59 0 0 0-.33-1.8z"/><path fill="#1890ff" d="M383.21 613.36c-2.4.66-5.47 1.4-8.8 2.13-7 1.47-15.94 3-22.68 3-64.15 0-114-51.22-114-112.78a126.93 126.93 0 0 1 1-14.27c.4-2.87.87-5.73 1.53-8.53.67-3 1.47-6 2.34-8.94l-5.34 4.73a99.28 99.28 0 0 0-34.45 74.66 98.16 98.16 0 0 0 16.54 54.69c1.53 2.34 2.4 4.14 2.13 5.34s-7.93 41.35-7.93 41.35a5.34 5.34 0 0 0 1.8 5.13 5.43 5.43 0 0 0 3.4 1.2 4.7 4.7 0 0 0 1.93-.4l37.42-14.74a10.42 10.42 0 0 1 8 .14 112.36 112.36 0 0 0 40.48 8 104.76 104.76 0 0 0 80.1-36.75s2.14-2.93 4.6-6.4c-2.46.87-5.27 1.73-8.07 2.47z"/><path fill="url(#a)" d="M232.78 762.23s-15.65 3.77-21.85 10.87a21.25 21.25 0 0 1-8.34 5.3v-10.72c3.58-6 7.2-12.7 7.2-12.7.16-.33 1.46-4.94 1.46-4.94 2.94-2.31-.16-10.38-.16-10.38s1.79-5.11.82-6.1-.17-3.62.65-4.77a6 6 0 0 0 .65-3.63c0-1-1.3-2.47-3.42-3.29s.16-2.14 1.46-2.47 1.63-3.46.17-5.11.16-2.63 1-4.45-2.6-1.48-2.6-1.48v-16.63s-1-5.44-2-15-4.73-10.54-4.73-10.54a42.37 42.37 0 0 1-5.87-2.31 40.63 40.63 0 0 0-6.2-2.3 31.66 31.66 0 0 1-8-1.11 24.65 24.65 0 0 0-5.46-1.18L177 659a21.4 21.4 0 0 1-9.9-10.49c-.1-.22-.19-.45-.28-.67a23.94 23.94 0 0 0 2.61-3.46v1.94c2.61-4.6 10.15-5.65 10.87-10.89a5.81 5.81 0 0 0 .05-.72v-.53c-.1-1.47-.6-2.93-.7-4.41a9 9 0 0 1 0-1.27c.33-4.07 3.41-7.61 4.81-11.57a14.46 14.46 0 0 0 .74-3.3c0-.34.06-.68.07-1a2.09 2.09 0 0 1 0-.25v-.71a15.44 15.44 0 0 0-5.09-11.14c-2.6-2.26-6-3.68-7.84-6.63-.84-1.37-1.25-3-2.17-4.32-1.72-2.49-4.89-3.51-7.88-3.87s-6.08-.24-8.95-1.19c-2-.66-3.88-1.84-5.93-2.44a11.34 11.34 0 0 0-12.19 4.4c-1.08 1.58-1.79 3.47-3.25 4.7-3 2.52-8.06 1.43-10.68 4.34-1.44 1.6-1.6 3.78-1.43 6v1.1c.09.8.21 1.59.31 2.36v.35c0 .11.06.48.08.72s0 .35 0 .52V607.73a35 35 0 0 1-3.74 17.56c-2.46 4.85-6.13 9.31-6.77 14.72a14.9 14.9 0 0 0-.07 2.67v.79l.06.55v.32c0 .11.07.48.11.73v.15c.65 3.69 2.12 7.33 2.9 11a30.61 30.61 0 0 1 .58 4.16c0 .45 0 .89.06 1.34s0 1.21 0 1.81a30.19 30.19 0 0 1-3.81 1.17c-2.28.33-9 6.26-8.48 7.74s-3 11.88-3.09 12.18l-5.5 37.89s-2.91 2.8-2 4.61-.17 4.94-.17 4.94-4.91 2.14-3.82 3.46.59 3.79-.16 5.44-2 4.61 0 5.1.34 6.92.34 6.92 6.88-.79 6.38 3.3c-.16 1.3 4.81 4.88 6.89 6.31v19.68a59.65 59.65 0 0 1-8.16-2.77c-4.24-2-28.05-5.76-33.27 5.6s7.18 26.52 10.28 28.17a21.3 21.3 0 0 1 3.58 3.46c.66 1.15 4.41 1.48 4.41 1.48s3.91 1.82 4.89 2.8c.72.73 6.68 2.63 13.76 4.1s-5.7 13.14 3.61 12.06 13.85-5.67 20.42-5.67c2.62 0 7.49-.36 12.4-.8a31.72 31.72 0 0 1 3.65.86 47.24 47.24 0 0 0 8.48 1.81s7.34 4 11.25 3a2.57 2.57 0 0 0 .89-.47h.09a5.27 5.27 0 0 0 2.36-2c4.9.5 10.48 1.21 12.58 2 4.06 1.57 33.07-.6 33.07-.6s18.75.37 24.12 2 3.46-16.58-6.45-18.63a39.9 39.9 0 0 0-8.06-.71 18.59 18.59 0 0 0 1.87-2.28c3.57-.33 5.92-.53 5.92-.53s9.46-4.61 14.84-7.41a34 34 0 0 0 9.14-7.25s4.73-3 6.68-4.11 2.94-5 2.94-5c15.21-33.6-22.47-29.15-22.47-29.15zm-42.47-42.16v-1.66c.52.38.45.97 0 1.66zm.15 11.65c.4.52.78 1 1.06 1.35 1 1.35-.86 2-.72 4.28 0 .51.08 1.21.12 2-.2-3.25-.36-5.95-.46-7.63z" transform="translate(-28 -62.64)"/><path fill="#65617d" d="M77.56 721.07s-9.14-2.12-13.38-4.08-28.05-5.71-33.27 5.55 7.18 26.26 10.28 27.89 33.27-20.72 33.27-20.72l23.81 10 4.57-15.58z"/><rect width="103.62" height="36.05" x="87.63" y="724.16" fill="#65617d" rx="16.59" ry="16.59"/><path d="M191.25 742.19a18 18 0 0 1-18 18h-67.6a18.025 18.025 0 0 1 0-36.05h67.57a18 18 0 0 1 18 18z" opacity=".1"/><path fill="#fbbebe" d="M134.83 743.24s-10.39 2.67-18.87 2.55-48.14 16.36-48.14 16.36-5.7 13 3.61 11.94 13.85-5.61 20.42-5.61 27.22-2.27 27.22-2.27L139 751.52zM141.33 620.43l-18.63 3.68-1.21.24s-14.74-3.92-15.23-4.25-13.86-18.35-13.86-18.35 6.76.08 12.08-3a6.42 6.42 0 0 0 .56-.34 11.75 11.75 0 0 0 5-6.15c.09-.27.18-.55.26-.84a16.64 16.64 0 0 0-.16-8c-1.8-7.6 2.37-9.69 7.94-9.51 8 .26 19 5.28 19 5.28a22.24 22.24 0 0 0 1.72 7.43c.09.23.19.45.28.67a21.27 21.27 0 0 0 9.9 10.38l.59.29a19.83 19.83 0 0 0 1.87.8c14.2 5.36-10.11 21.67-10.11 21.67z"/><path d="M139.09 587.27a23.49 23.49 0 0 1-29 5 15.8 15.8 0 0 0 .1-8.87c-4.4-18.59 26.91-4.23 26.91-4.23a22.71 22.71 0 0 0 1.99 8.1z" opacity=".1"/><path fill="#fbbebe" d="M145 570.75a23.49 23.49 0 0 1-22.06 23.44h-1.42A23.49 23.49 0 1 1 145 570.75z"/><path d="M141.33 620.43l-18.63 3.68-1.21.24s-14.74-3.92-15.23-4.25-13.86-18.35-13.86-18.35 6.76.08 12.08-3a6.42 6.42 0 0 0 .56-.34 21.9 21.9 0 0 0 15.9 7 22.94 22.94 0 0 0 3.32-.27c2.62-.4 5.26-.66 7.9-.93 5.05-.53 12.78-2.06 16.83-6.53l.59.29a19.83 19.83 0 0 0 1.87.8c14.19 5.35-10.12 21.66-10.12 21.66z" opacity=".1"/><path fill="#1890ff" d="M162.38 668.06c.16 3.59 2.77 44 2.77 44H83.76l.55-25.47.44-20.37.15-6.68.65-23.16-2.35-2.02-12.82-11.3c.1-.31 3.57-10.62 3.09-12.07s6.2-7.34 8.48-7.66a30.21 30.21 0 0 0 3.83-1.17c3.85-1.35 9-3.34 9.55-3 .8.43 8.8-.31 9.14-.35a21.8 21.8 0 0 0 16.47 7.55 21.56 21.56 0 0 0 3.32-.26c2.62-.4 5.26-.66 7.9-.93 5.3-.56 13.55-2.22 17.42-7.22a24.88 24.88 0 0 1 5.46 1.17 31.93 31.93 0 0 0 8 1.1 40.7 40.7 0 0 1 6.2 2.28 43.13 43.13 0 0 0 5.87 2.28s3.75 1 4.73 10.44 2 14.85 2 14.85l-19.41 16.8s-.22 17.6-.05 21.19z"/><path fill="#fbbebe" d="M70.38 696.27l2.85 4.57 10.69 3.77 7.34-13.39-6.77-4.57-10.85-4.24-6.19 3.59 2.93 10.27z"/><path fill="#65617d" d="M161.56 718.79s15.17-1.15 21.37-8.16 21.85-10.76 21.85-10.76 37.68-4.41 22.84 28.87c0 0-1 3.75-2.94 4.89s-6.68 4.08-6.68 4.08l-57.9-5.06z"/><path d="M191.25 742.19a18 18 0 0 1-3 10c-9.74.87-31.31 2.9-35.82 4.15-5.55 1.54-16.77-1.14-18-1.44h-.11s-2.16-6.56-3.19-10.76c-.47-1.9-.7-3.32-.4-3.43 1-.32 10-2.77 9.79-1.39s26.91-10.52 26.91-10.52l.83 10.44c2.74 3.12 22.99-1.58 22.99 2.95z" opacity=".1"/><path fill="#65617d" d="M219.14 733.47l-1.14 4.24a33.9 33.9 0 0 1-9.14 7.17c-5.38 2.78-14.84 7.34-14.84 7.34s-34.74 2.94-40.62 4.57-18.1-1.43-18.1-1.43-4.57-13.86-3.59-14.19 9.95-2.77 9.79-1.38 26.91-10.52 26.91-10.52z"/><path fill="#fbbebe" d="M122.41 770.03s17.08 1.2 21.14 2.75 33.07-.6 33.07-.6 18.75.37 24.12 2 3.46-16.42-6.45-18.45-23.88 1-23.88 1l-17.67-2.37c-1.91-.24-14.5.12-14.5.12z"/><path d="M55.31 725.02s22.57 2 28.77 5.73zM196.08 710.21s-17.67 4.3-24.59 10.63zM56.62 719.88c.36.12 10.39 1.44 10.15 2.39s-10.15-2.39-10.15-2.39zM40.86 745.05l1.3 4.89s2.94 2.28 3.59 3.43 4.41 1.46 4.41 1.46 3.91 1.8 4.89 2.78 11.58 4.07 21.53 5.38 28.38 3.75 32.3 5a46.76 46.76 0 0 0 8.48 1.8s7.34 3.91 11.25 2.93 10.6-18.75 10.6-18.75-25.77-6-26.58-8S87 734.94 87 734.94l-14.68.35z" opacity=".1"/><path fill="#65617d" d="M39.88 745.54l1.31 4.89a21.06 21.06 0 0 1 3.58 3.42c.66 1.15 4.41 1.47 4.41 1.47s3.91 1.8 4.89 2.78 11.58 4.07 21.53 5.38 28.38 3.75 32.3 5a46.76 46.76 0 0 0 8.48 1.8s7.34 3.91 11.25 2.93 10.61-18.75 10.61-18.75-25.78-6-26.59-8-37.19-16.8-37.19-16.8L63 727.1z"/><path fill="#1890ff" d="M73.23 621.41l-2.85 1.63-5.5 37.52s-2.91 2.77-2 4.56-.17 4.9-.17 4.9-4.91 2.12-3.82 3.42.59 3.75-.16 5.38-2 4.57 0 5.06.34 6.85.34 6.85 6.88-.78 6.38 3.26c-.21 1.63 7.78 6.85 7.78 6.85s-9.08-16.48 11.26-14.19l1.75-9.28s1.75-5.23 0-6.86.4-9.38.4-9.38l.38-33.68z"/><path d="M68.8 669.86c.36.59 11.34 1.81 12.06 3.77s-12.06-3.77-12.06-3.77zM65.34 679.17s1.49-4.66 5-3.82-5 3.82-5 3.82zM63.43 685.97s2.63-6.2 6.21-5.73-6.21 5.73-6.21 5.73z" opacity=".1"/><path fill="#fbbebe" d="M182.93 685.84l-1.14 6.85s-11.79 21.53-13.87 21.86-13.7-14.36-13.7-14.36l-3.1-14.35 12.2-2.31 5.42-5.36s13.7 1.31 14.19 7.67z"/><path fill="#1890ff" d="M177.38 626.96l4.41 3.1v16.47s3.42-.33 2.6 1.47-2.44 2.77-1 4.4 1.14 4.73-.17 5.06-3.59 1.63-1.46 2.44 3.42 2.29 3.42 3.27a5.88 5.88 0 0 1-.65 3.58c-.82 1.15-1.63 3.76-.65 4.73s-.82 6-.82 6 3.1 8 .16 10.28c0 0-1.3 4.56-1.46 4.89 0 0 2.05-15.88-18.47-9.16l-.52-8.3c-.14-2.24 1.77-2.9.72-4.23s-3.7-4.41-2.45-5.22.82-2.29.33-3.43-2.22-1.14-.66-2.53 2.49-2.69 1.57-3.34-2.51-2.78-1.24-3.75 1.31-15.17 1.31-15.17 5.24-20.84 15.03-10.56z"/><path d="M175.31 655.02s6.27-1.7 6.48 0-6.48 0-6.48 0zM168.26 659.71s8.6-2.15 9.67-.48-9.67.48-9.67.48zM166.35 664.24s12.9-1.79 13.73.84-13.73-.84-13.73-.84zM168.26 669.86c.48.11 12.42 1 12.66 3.22s-12.66-3.22-12.66-3.22z" opacity=".1"/><rect width="102.25" height="58.08" x="72.34" y="677.2" fill="#3f3d56" rx="10.47" ry="10.47"/><circle cx="123.47" cy="706.24" r="3.77" fill="#e7effd"/><path d="M89.47 641.61s9.8 7.49 17.37 1.78c0-.03-12.84 1.17-17.37-1.78zM139.09 643.63s9.8 7.49 17.38 1.78c0 0-12.81 1.16-17.38-1.78z" opacity=".1"/><path d="M145 570.75a23.42 23.42 0 0 1-3.55 12.43 35.86 35.86 0 0 0-5.3-18.55c-3.26-5-13.16-13.78-20-11.33a4.86 4.86 0 0 0-3 3.2c-.67 2.56 1.31 3.63 2.57 5.67a17.39 17.39 0 0 1 2.38 11.72 14.58 14.58 0 0 1-.35 1.62c-1.07 4-3.52 8.63-1 11.93 1.77 2.3 5.56 3.09 6.08 5.95a3.62 3.62 0 0 1 0 .8c-.12 1.92-1.76 3.62-2.47 5.5-.85 2.23-.37 4.43.5 6.66 1.13 2.92 2.94 5.86 3.38 8.93s-.51 5.93-1.62 8.83a39.26 39.26 0 0 0-2.7 8.3c-.78 5.42 1.2 11.69-2.21 16a2.34 2.34 0 0 1-1.49 1c-2.19.23-1.81-3.69-3.57-5 .18 2.29.36 4.67-.47 6.81s-3 3.94-5.25 3.59c-.26-1.71-.52-3.42-.77-5.13a14.93 14.93 0 0 1-5.44 3.4 39.72 39.72 0 0 1 5.67-15.35c-5.74 2.77-9.09 8.75-12.08 14.38-1.87 3.52-3.79 7.37-3.14 11.3.26 1.6 1 3.12 1.1 4.73s-.43 3.5-1.93 4.11a3.51 3.51 0 0 1-3.79-1.17l-.16-.2-.26-.36a5.93 5.93 0 0 1-.43-.78 14.68 14.68 0 0 1-.92-3l-.11-.44c-1.51-6.67-2.88-13.54-1.77-20.29.41-2.48 1.16-4.94 1.07-7.46a13.7 13.7 0 0 0-.85-4.17c-1.33-3.73-3.9-7.16-5.36-10.91a.32.32 0 0 1 0-.09c-.77-2-1.15-4.47.27-6.07a12.16 12.16 0 0 1 2.72-1.84c2.84-1.85 4.12-5.36 4.63-8.71a29.35 29.35 0 0 0 .36-4.58c3.85-1.35 9-3.34 9.55-3 .8.43 8.8-.31 9.14-.35a11.92 11.92 0 0 0 5.6-6.49c.09-.27.18-.55.26-.84A23.49 23.49 0 1 1 145 570.75z" opacity=".1"/><path fill="#3f3d56" d="M117.77 574.53c-1.07 4-3.52 8.63-1 11.93 1.77 2.3 5.56 3.09 6.08 5.95.4 2.26-1.61 4.16-2.42 6.31-1.94 5.12 3.11 10.16 3.87 15.58.84 5.89-3.45 11.25-4.31 17.13-.78 5.42 1.2 11.69-2.21 16a2.39 2.39 0 0 1-1.49 1c-2.19.23-1.82-3.7-3.57-5 .19 2.28.36 4.66-.47 6.8s-3 3.95-5.25 3.59l-.77-5.13a14.93 14.93 0 0 1-5.44 3.4 39.77 39.77 0 0 1 5.67-15.35c-5.74 2.77-9.09 8.75-12.08 14.38-1.87 3.52-3.79 7.37-3.14 11.29.26 1.61 1 3.13 1.1 4.74s-.43 3.5-1.93 4.11a3.57 3.57 0 0 1-4-1.36 10.26 10.26 0 0 1-1.61-4.15c-1.56-6.8-3-13.83-1.88-20.73.41-2.48 1.16-4.94 1.07-7.46-.2-5.51-4.26-10-6.25-15.16-.77-2-1.14-4.48.28-6.08a12.33 12.33 0 0 1 2.73-1.84c2.83-1.85 4.11-5.36 4.63-8.71a30.21 30.21 0 0 0-.31-10.89c-1.15-5.37-3.77-10.6-3.12-16s4.31-9.77 6.77-14.57a34.43 34.43 0 0 0 3.5-20.15c-.43-3.21-1.17-6.94 1-9.34 2.62-2.88 7.69-1.8 10.68-4.3 1.46-1.22 2.17-3.09 3.25-4.66a11.41 11.41 0 0 1 12.19-4.35c2.05.59 3.9 1.76 5.93 2.42 2.87.93 5.95.81 8.95 1.17s6.16 1.37 7.88 3.84c.92 1.31 1.33 2.92 2.17 4.28 1.8 2.92 5.24 4.32 7.84 6.56a15.23 15.23 0 0 1 4.28 16.25c-1.55 4.33-5.14 8.15-4.84 12.73.13 1.89.93 3.73.67 5.6-.72 5.2-8.26 6.23-10.87 10.79.21-7.47-1.22-15.16-5.3-21.41-3.26-5-13.16-13.78-20-11.34a4.86 4.86 0 0 0-3 3.2c-.67 2.56 1.3 3.63 2.57 5.67a17.26 17.26 0 0 1 2.15 13.26z"/><g opacity=".2"><path d="M85.78 600.36a30.34 30.34 0 0 0-.65-7c-1-4.56-3-9-3.2-13.61-.26 5.1 2.12 10 3.2 15.08a30 30 0 0 1 .65 5.53zM105.22 637.43c.4-.73.81-1.45 1.25-2.15-5.74 2.76-9.09 8.75-12.08 14.38-1.73 3.25-3.5 6.79-3.24 10.42.22-3.11 1.75-6.14 3.24-9 2.77-5.16 5.84-10.67 10.83-13.65zM92.33 666.93a3.49 3.49 0 0 1-1.91 2.87 3.58 3.58 0 0 1-4-1.37 10.42 10.42 0 0 1-1.61-4.14 74.13 74.13 0 0 1-2.27-14.81c-.11 5.44 1 10.93 2.27 16.28a10.42 10.42 0 0 0 1.61 4.14 3.56 3.56 0 0 0 4 1.36c1.5-.61 2.09-2.49 1.94-4.11zM118.3 569.63a15.75 15.75 0 0 1-.53 3.47c-.79 3-2.34 6.28-2.06 9.13.22-2.48 1.4-5.18 2.06-7.67a16.37 16.37 0 0 0 .53-4.93zM92.56 547.85a33.45 33.45 0 0 0-.28-5.2c-.17-1.27-.38-2.62-.45-3.94a29.86 29.86 0 0 0 .45 5.41 33.25 33.25 0 0 1 .28 3.73zM122.86 592.44v-.11c-.35 1.7-1.75 3.25-2.39 4.95a6.92 6.92 0 0 0-.4 3.19 6.31 6.31 0 0 1 .4-1.72c.78-2.15 2.79-4.05 2.39-6.31zM84.05 636.09c-.2-5.51-4.26-10-6.24-15.16a9.75 9.75 0 0 1-.64-2.51 8.35 8.35 0 0 0 .64 4c2 5.05 5.9 9.5 6.22 14.89.02-.42.03-.82.02-1.22zM136.13 562.22c-3.26-5-13.17-13.78-20-11.34a4.82 4.82 0 0 0-3 3.2 3.51 3.51 0 0 0-.06 1.72 1.83 1.83 0 0 1 .06-.25 4.82 4.82 0 0 1 3-3.2c6.81-2.44 16.72 6.33 20 11.34 3.69 5.66 5.2 12.51 5.3 19.29.11-7.26-1.35-14.68-5.3-20.76zM152.29 572.84c-.71 5.19-8.23 6.23-10.85 10.76v1.5c2.61-4.55 10.15-5.59 10.87-10.79a6.61 6.61 0 0 0 0-1.54s-.01.05-.02.07zM156.46 554.52c-1.55 4.32-5.14 8.14-4.84 12.73v.2c.33-4 3.41-7.55 4.81-11.47a14.12 14.12 0 0 0 .8-5.58 13.87 13.87 0 0 1-.77 4.12zM117.79 645.97a2.37 2.37 0 0 1-1.49 1c-2.19.23-1.81-3.7-3.57-5 0 .52.08 1 .11 1.57 1.62 1.41 1.33 5.14 3.46 4.92a2.37 2.37 0 0 0 1.49-1c2-2.45 2.14-5.54 2.09-8.75-.05 2.65-.44 5.19-2.09 7.26zM112.26 648.76c-.82 2.14-3 4-5.24 3.59l-.78-5.13a14.89 14.89 0 0 1-5.16 3.3c-.1.52-.2 1.05-.28 1.57a14.93 14.93 0 0 0 5.44-3.4l.78 5.13c2.26.36 4.42-1.45 5.24-3.59a11.52 11.52 0 0 0 .61-4.64 9.75 9.75 0 0 1-.61 3.17zM120 630a25.83 25.83 0 0 0-.2 4.15 19.65 19.65 0 0 1 .2-2.68c.81-5.61 4.74-10.75 4.39-16.31-.31 5.01-3.64 9.73-4.39 14.84z"/></g><path fill="#fff" d="M739 205.85v98.18c0 5.18-5 9.4-11.17 9.4H491.42c-6.17 0-11.17-4.22-11.17-9.4v-98.18c0-5.2 5-10.49 11.17-10.49h236.41c6.17 0 11.17 5.29 11.17 10.49z"/><path fill="#1890ff" d="M739 206.53v27.39H480.25v-27.39a11.17 11.17 0 0 1 11.17-11.17h236.41A11.17 11.17 0 0 1 739 206.53z" opacity=".2"/><circle cx="494.44" cy="214.64" r="7.47" fill="#fff"/><circle cx="516.17" cy="214.64" r="7.47" fill="#fff"/><circle cx="537.9" cy="214.64" r="7.47" fill="#fff"/><circle cx="688.04" cy="273.04" r="29.2" fill="#1890ff"/><path fill="#1890ff" d="M625.75 257.73H502.61v-4.35h123.14z"/><path fill="#1890ff" d="M625.75 268.33H502.61v-4.35h123.14zM625.75 278.93H502.61v-4.35h123.14zM625.75 289.51H502.61v-4.35h123.14z" opacity=".2"/><path fill="url(#b)" d="M291.73 466.55c6.89 4.62 17.34 2.42 17.34 2.42s15.77-7.47 20.44-7.47 16-4.62 16-4.62l-.38-3.11-1.13-9.38c7.19 5.6 15.17 3.67 19.1 3.26 4.22-.44 26.78-13.85 28.94-14.73a5.67 5.67 0 0 0 2-2 50.54 50.54 0 0 0 3.81-7c1.42-1.24 2.45-2.24 2.37-2.46a16.29 16.29 0 0 1 1.39-3.69 18.11 18.11 0 0 0 6.84-2.46 6 6 0 0 0 2.22-4.84s22-22.2 19.11-31.43 7.11-9.45 7.11-9.45 15.34-6.59 17.47-10.55c1.32-2.43 12.82-7.77 21.47-11.53l1.07-.46c3.36 7.37 20.42 1.7 23.78-1.42 3.55-3.29 14-4.83 14-4.83s.44-43.08 3.78-48.58c1.58-2.6 2-11.11 1.92-19.32v-.88c4.67-.91 15.78-3 20.94-3.53 3.27-.33 6.67-2.37 9.29-4.35l.3.39a6.45 6.45 0 0 0 2.85.47 4.45 4.45 0 0 0 2.49-.47c2-1.1 9.33-3.3 12-4.4s-.45-9-2.45-10.55-3.33-3.51-2.22-4.39-2.67-3.08-4.89-3.52-8.89-3.52-8.89-3.52-2.44-5.05-6.44-5.05-9.34-4-9.34-4c-.22-1.76-4.44-2-4.44-2s-16-12.3-18.67-10.77-10-2.41-10-2.41-9 1-11.11-.65a2.53 2.53 0 0 0-.54-1.49c-.48-1.49-2.8-3.53-5-5.23a20.65 20.65 0 0 0 .25-3.17c0-.46 0-.93-.05-1.38a1.79 1.79 0 0 0 0-.23c.11-1 .21-2.06.32-3.09a6.34 6.34 0 0 1 .77-2.91c.38-.58.93-1 1.35-1.59a3.62 3.62 0 0 0 .27-.41l.07-.12c.06-.11.11-.22.16-.33a.54.54 0 0 0 .05-.11 4.63 4.63 0 0 0 .29-.94v-.08c0-.08.05-.29.06-.44v-.06a9.38 9.38 0 0 0-.5-3.77c-.67-2.08-1.71-4.08-1.82-6.25a20.28 20.28 0 0 0-.11-3.22c-.54-2.4-3-3.93-5.39-4.93-3.28-1.38-4.94-2.88-7.58-4.93-2.24-1.74-5.94-.86-8.77-.68-6.44.41-12.81 2.35-18.87 4.36a18.74 18.74 0 0 0-6.6 3.27 7.29 7.29 0 0 0-2.41 4.08 5.19 5.19 0 0 0-.08 1.11v.1c0 .03 0 .28.05.42a.59.59 0 0 0 0 .14 4.7 4.7 0 0 0 .12.51c.25.81.73 1.54 1 2.35a5.44 5.44 0 0 1 .15.54v.06l.09.53c.24 2-.5 4.08-.82 6.12a8.46 8.46 0 0 0-.1.88 10.63 10.63 0 0 0 .3 3.51c0 .14.09.27.13.41l.06.18c0 .12.09.23.13.35a2.29 2.29 0 0 1 .1.23c0 .1.09.2.14.3s.09.17.13.25.1.18.16.27l.16.26.16.24.2.25c.06.07.11.15.18.22l.23.24.18.19.28.23.19.16.34.23.17.11a4.25 4.25 0 0 0 .56.29c1.28.59 2.88.79 3.66 1.91a2.71 2.71 0 0 1 .37.88v.42a17.69 17.69 0 0 0 .11 1.93 9.05 9.05 0 0 0 .05 1 3.23 3.23 0 0 0 .22.75 20 20 0 0 0 6.74 11.32c.07.34.14.74.23 1.19a22.14 22.14 0 0 1-6.47 3.38C439.52 224.83 432 232 432 232s-3.75 27-4.65 30.33-1.57 16.05-1.57 16.05-.89 5.27-2.22 7.91c-.94 1.86-.77 9.85 1.86 14.7a12.18 12.18 0 0 1-1.64 2.66c-5.33 6.16-21.33 5.94-26.67 5.94-4.91 0-6.43 3-6.63 3.45-9.77 2.77-41.4 11.8-45.15 13.44-4.44 1.94-6.89 21.13-6.89 21.13s-9.33 31.87-8.89 36.07-3.11 15.8-3.11 15.8 0 13.15-1.51 14.05h-.05c-1.55.66-1.33 7-1.33 7s1.14.34 2.93.79c-.47 3.22-2.22 7.73-3.6 10.93-.69-.88-1.37-1.25-1.77-.22-1.11 2.79-17.78 22.57-22 22.57-2 0-5.33 1.65-7.52 3.88-2.45 2.52-3.46 5.66.14 8.07zM368.18 352c18.89 1.76 39.12-1.34 39.12-1.34s-1.56 5.51-2.89 7.71-5.12 14.73-5.12 17.37-6 25.27-7.77 26.37a6.59 6.59 0 0 0-1.94 2.8 26.36 26.36 0 0 0-1.17 3.36 13.52 13.52 0 0 0 .15 1.62c-1.33 1.22-2.73 2.5-4 3.63S376.63 418 374 420.4s-15.11 5.38-15.11 5.38a76.79 76.79 0 0 0-9 4.56c-3.85 2.33-7.71 5.28-8.72 8.19.44-4.91 1.15-10.82 1.62-14.59h.71c6.23-.38 5.3-6.33 5-7.8a2.82 2.82 0 0 0-.08-.33c4.45-4.84 14.45-40.88 13.11-44.84s1.12-7.47 1.64-7.47 1.25-4.4.14-6.82 4.87-4.68 4.87-4.68zm152.76-97l-1.18.29v-.25s.43.07 1.18.03zm-64.57-33.16c-.18.22-.36.43-.55.64l-.23.24v-1.22zm-22.26 42.64l.08 1.24s-.12.75-.35 2zm102.13-12.28l-3.88.66c.55-.2 1.09-.43 1.62-.68a3.68 3.68 0 0 1 1.23-.33 6.61 6.61 0 0 1 1.45.31 2 2 0 0 0-.42.11z" transform="translate(-28 -62.64)"/><path fill="#be6f72" d="M377.08 348.36s-4.46 9.24-4.24 9.89-9.6 8.51-9.6 8.51l-10.69-7.64 1.09-5.23s12-10.81 12.87-12.06 10.57 6.53 10.57 6.53z"/><path fill="#3f3d56" d="M316.12 379.59c7.42 7.2 16.15 5 20.29 4.58s26.28-13.74 28.41-14.62a5.66 5.66 0 0 0 1.94-2 49.93 49.93 0 0 0 3.75-6.92c-.15 0-7.4 2.11-9.23 0 0 0-3.06-3.75-3.71-3.75s-.05-6.57-.05-6.57-7.8 4.39-10.42 6.79-14.83 5.34-14.83 5.34a74.93 74.93 0 0 0-8.78 4.53c-5.79 3.55-11.58 8.53-7.37 12.62z"/><path d="M316.12 379.59c7.42 7.2 16.15 5 20.29 4.58s26.28-13.74 28.41-14.62a5.66 5.66 0 0 0 1.94-2c-2.58-1.54-19.44 9.18-24.16 11.14s-16.66.88-23.42-2c-3.38-1.41 0-5.76 4.31-9.76-5.79 3.59-11.58 8.57-7.37 12.66z" opacity=".1"/><path fill="#be6f72" d="M317 356.9s-3.11 23.34-2.32 26.4-19.5-10.47-19.5-10.47 7.1-14.63 5-18S317 356.9 317 356.9z"/><path fill="#3f3d56" d="M297.58 357.36s12.65 3.71 19.63 3.27c6.12-.38 5.2-6.28 4.88-7.74a2.82 2.82 0 0 0-.08-.33c4.37-4.8 14.18-40.57 12.87-44.5s1.09-7.41 1.61-7.41 1.23-4.37.14-6.77 4.8-4.58 4.8-4.58c18.54 1.75 38.39-1.33 38.39-1.33s-1.53 5.48-2.84 7.66-5 14.61-5 17.23-5.89 25.09-7.63 26.18a6.52 6.52 0 0 0-1.9 2.77 26.12 26.12 0 0 0-1.15 3.33c.65 14.62 17.23 8.95 19.63 7a6.39 6.39 0 0 0 .93-.95 6.07 6.07 0 0 0 1.25-3.85s21.59-22 18.76-31.19 7-9.38 7-9.38 15.05-6.54 17.14-10.47c1.29-2.41 12.58-7.71 21.08-11.44 5.32-2.33 9.55-4 9.55-4l-3.54-12.69-2.79-10-5.25-2-16.78-6.32-30.13-4.14-2.76.36-29.28 3.78s-42.79 12.17-47.11 14.1-6.76 21-6.76 21-9.16 31.63-8.73 35.79-3.09 15.62-3.09 15.62 0 13-1.48 13.93h-.05c-1.52.72-1.31 7.07-1.31 7.07z"/><path d="M341.43 289.28c18.54 1.75 38.39-1.33 38.39-1.33 1.31-4.12 19.64-15.46 19.64-15.46-15.04-3.71-58.03 16.79-58.03 16.79z" opacity=".1"/><path fill="#444053" d="M361.28 345.12c.65 14.62 17.23 8.95 19.63 7a6.39 6.39 0 0 0 .93-.95c-5.8 2.14-16.07 3.78-19.41-9.36a26.12 26.12 0 0 0-1.15 3.31zM297.58 357.36s12.65 3.71 19.63 3.27c6.12-.38 5.2-6.28 4.88-7.74-6.4-.2-17.43-.81-23.15-2.54h-.05c-1.52.66-1.31 7.01-1.31 7.01z"/><path d="M361.28 345.12c.65 14.62 17.23 8.95 19.63 7a6.39 6.39 0 0 0 .93-.95c-5.8 2.14-16.07 3.78-19.41-9.36a26.12 26.12 0 0 0-1.15 3.31zM297.58 357.36s12.65 3.71 19.63 3.27c6.12-.38 5.2-6.28 4.88-7.74-6.4-.2-17.43-.81-23.15-2.54h-.05c-1.52.66-1.31 7.01-1.31 7.01z" opacity=".1"/><path fill="#3f3d56" d="M266.39 402.93c6.76 4.58 17 2.4 17 2.4s15.48-7.42 20.06-7.42 15.73-4.55 15.73-4.55l-.38-3.09-1.8-14.8s-17-.43-17.67-2c0 0-3.06-7.51-4.15-4.74s-17.45 22.41-21.59 22.41c-2 0-5.24 1.63-7.39 3.84-2.35 2.44-3.35 5.55.19 7.95z"/><path d="M325.07 274.01s14.18 9 10.25 10.91-10.25-10.91-10.25-10.91zM319.18 291.25s12.21 11.59 7.63 11.9-7.63-11.9-7.63-11.9zM306.09 328.11s6.2 11.66 3.86 13.68-3.86-13.68-3.86-13.68zM374.36 339.89c-2.18 2.18 20.73-7.2 15.49-7.64s-15.49 7.64-15.49 7.64z" opacity=".1"/><path fill="#be6f72" d="M420.17 176.29l.73-.11c2.71-.41 12.55-1.95 21.37-3.87 2.15-.47 4.23-.95 6.14-1.46 6.76-1.77 11.29-3.68 8.41-5.24-3.83-2.08-5.85-5.85-6.91-9.1-.1-.32-.2-.63-.28-.93a23.91 23.91 0 0 1-.89-5s-24.64-8.73-19.84 0c2.35 4.27.77 7.77-1.46 10.22a19.08 19.08 0 0 1-5.31 4z"/><path d="M446.56 169.53s-8.81 6.33-17.82 1.09S408 216.87 408 216.87l-12.22 30.1s-7.91 6.54 1.93 9.38 31.7-2.84 37.24 5.45 16.05 9.56 17.05 9.56 5.23-31.2 5.23-31.2l1.08-45.15z" opacity=".1"/><path fill="#f3f5f9" d="M398.11 254.6c9.85 2.84 31.69-2.83 37.24 5.45a21.32 21.32 0 0 0 9.38 7.56 24.54 24.54 0 0 0 7.74 2c.14 0 .35-.57.59-1.56 1.53-6.31 4.64-29.63 4.64-29.63l1.08-45.06-10.37-22.46-1.41-3.11a18.87 18.87 0 0 1-4.49 2.18 15.82 15.82 0 0 1-13.34-1.09c-2.64-1.54-5.52 1.81-8.27 7.3-6.63 13.24-12.51 38.94-12.51 38.94l-12.21 30.1a10.5 10.5 0 0 0-.83.8c-1.74 1.82-4.99 6.34 2.76 8.58z"/><path d="M445 256.12a56.85 56.85 0 0 0-.29 11.49 134.75 134.75 0 0 0 2 16.22 6 6 0 0 0 .27 1c5.32-2.33 9.55-4 9.55-4l-3.54-12.69c1.53-6.31 4.64-29.63 4.64-29.63l1.15-45.15-10.37-22.46c6.76-1.77 11.29-3.68 8.41-5.24-4.2-2.28-6.22-6.6-7.19-10a37.08 37.08 0 0 1-6.2 6.67l-.14.11-.78 7.61-.24 2.34-.51 4.86s2.4 57.36 4.15 60.64.87 9.59-.66 17c-.08.35-.16.78-.25 1.23z" opacity=".1"/><path fill="#67647e" d="M446.13 253.95c-1.53 7.41-.22 19.63 1.52 29s20.29 3.27 23.78 0 13.74-4.8 13.74-4.8.44-42.75 3.71-48.21c1.55-2.58 1.93-11 1.89-19.18 0-7.32-.39-14.41-.53-16.82v-.86s14.18-24 14-25.74-4.36-2-4.36-2-15.71-12.22-18.33-10.69-9.81-2.4-9.81-2.4-9.12 1-11-.72a1 1 0 0 1-.33-.81c.21-2.79-9.3-8.75-9.59-8.94 8 7.22-5 18.33-6.42 19.54l-.14.12-1.52 14.8s2.4 57.37 4.14 60.64.77 9.65-.75 17.07z"/><circle cx="446.97" cy="191.63" r="1.09" fill="#444053"/><path d="M444.74 162.25l6.62 6.41 9.72-16.21a1 1 0 0 1-.34-.8c.22-2.8-9.29-8.76-9.59-8.94 8.02 7.21-4.94 18.32-6.41 19.54z" opacity=".1"/><circle cx="449.15" cy="226.53" r="1.09" opacity=".1"/><circle cx="449.15" cy="226.09" r="1.09" fill="#444053"/><path fill="#67647e" d="M444.3 161.36l6.63 6.42 9.71-16.21a1 1 0 0 1-.33-.81c.21-2.79-9.3-8.75-9.59-8.94 8.01 7.23-4.95 18.34-6.42 19.54z"/><rect width="15.18" height="32.08" x="465.78" y="253.19" fill="#3f3d56" rx="1.7" ry="1.7" transform="rotate(-178.69 459.021 238.054)"/><rect width="15.18" height="32.08" x="465.78" y="253.19" opacity=".1" rx="1.7" ry="1.7" transform="rotate(-178.69 459.021 238.054)"/><rect width="15.18" height="32.08" x="465.86" y="253.9" fill="#3f3d56" rx="1.7" ry="1.7" transform="rotate(-178.69 459.104 238.763)"/><circle cx="445.86" cy="200.64" r="2.39" fill="#67647e"/><path d="M363.68 251.98c5.45 2.4 41.22-3.92 46.46-5.45s12.87-13.31 9.16-21.81 1.31-16.8 1.31-16.8 7.85-16.79 9.59-20.07a153.46 153.46 0 0 0 5.89-14.39 1.28 1.28 0 0 0-.31-1c-1.41-2.16-6.88-6-6.88-6-1.54.56-1.74-3.85-1.68-7.1 0-1.81.15-3.26.15-3.26s-.73.74-1.91 1.74c-.43.36-.92.77-1.47 1.18a22.56 22.56 0 0 1-6.87 3.76c-5.24 1.54-12.65 8.7-12.65 8.7l2.18 33.49s-5 31.51-10.26 37.61-20.94 5.89-26.17 5.89-6.54 3.51-6.54 3.51z" opacity=".1"/><path fill="#67647e" d="M363.24 250.67c5.45 2.4 41.23-3.92 46.46-5.45s12.87-13.3 9.16-21.81 1.31-16.8 1.31-16.8 7.85-16.79 9.6-20.06 5.38-12.8 5.89-14.4a1.32 1.32 0 0 0-.31-1c-1.42-2.16-6.89-6-6.89-6-1.54.56-1.73-3.85-1.67-7.09 0-1.82.14-3.27.14-3.27s-.72.74-1.9 1.74c-.44.37-.93.77-1.47 1.18a22.62 22.62 0 0 1-6.88 3.76c-5.23 1.55-12.65 8.7-12.65 8.7l2.18 33.5s-5 31.5-10.25 37.61-20.94 5.88-26.18 5.88-6.54 3.51-6.54 3.51z"/><path d="M422.57 155.69s.2 1.15.55 2.91c1.17 6 4 19.07 6 18.57 1.45-.37 3.9-2.93 5.8-5.15-1.42-2.16-6.89-6-6.89-6-1.54.56-1.73-3.85-1.67-7.09l-1.76-1.52z" opacity=".1"/><path fill="#67647e" d="M423 154.81s.2 1.15.55 2.92c1.17 6 4 19.07 6 18.56 1.45-.36 3.9-2.92 5.8-5.14-1.42-2.16-6.89-6-6.89-6-1.54.56-1.73-3.85-1.67-7.09l-1.79-1.51z"/><path fill="#be6f72" d="M409.05 219.05s10.9-2.18 14-7 23.82-8.95 21.29-3.93S423 229.57 423 229.57l-8.13 11.64-10.87-2.75-4.57-8.89z"/><path d="M434.85 231.49s-10.56 3.93-12.15 9.16 12.15-9.16 12.15-9.16zM441.33 237.59s1 5.45-12.28 5zM498.48 167.79l4.8-.44s5.23 3.93 9.16 3.93 6.32 5 6.32 5 6.55 3.06 8.73 3.49 5.89 2.62 4.8 3.49.21 2.84 2.18 4.37 5 9.38 2.4 10.47-9.82 3.27-11.78 4.36a5.41 5.41 0 0 1-4.36 0s-11.56-15.05-17.45-12.22-14 2.84-14 2.84l-6.28-13.3z" opacity=".1"/><path fill="#67647e" d="M398.11 239.56a5.85 5.85 0 0 0 4.06 2.83 30.82 30.82 0 0 0 12.71-1.18s-22-7-.82-24h-5.67l-1.89-.72.87-4.52 1.24-40.74-4.61-1.04s-3.69 26.83-4.57 30.1-1.54 15.92-1.54 15.92-.87 5.24-2.18 7.85c-.96 1.97-.71 10.84 2.4 15.5z"/><path d="M399 239.56a5.87 5.87 0 0 0 4.07 2.83 30.79 30.79 0 0 0 12.7-1.18s-22-7-.81-24h-5.68l-1.89-.72c-3.12 5.55-8.01 15.34-8.39 23.07z" opacity=".1"/><path fill="none" d="M398.11 239.56a5.85 5.85 0 0 0 4.06 2.83 30.82 30.82 0 0 0 12.71-1.18s-22-7-.82-24h-5.67l-1.89-.72c-3.1 5.55-7.99 15.34-8.39 23.07z"/><path fill="#67647e" d="M398.11 239.56a5.85 5.85 0 0 0 4.06 2.83 30.82 30.82 0 0 0 12.71-1.18s-22-7-.82-24h-5.67l-1.89-.72c-3.1 5.55-7.99 15.34-8.39 23.07z"/><path d="M427.44 160.78a19.88 19.88 0 0 0 22.47-4.27c-.1-.32-.2-.63-.28-.93a23.91 23.91 0 0 1-.89-5s-24.64-8.73-19.84 0c2.35 4.25.77 7.78-1.46 10.2z" opacity=".1"/><path fill="#be6f72" d="M415.81 141.83v.19c0 .65 0 1.28.11 1.91a18 18 0 0 0 .27 1.79 19.85 19.85 0 0 0 38.24 2.56c.13-.38.26-.77.36-1.16a19.69 19.69 0 0 0 .72-5.29c0-.46 0-.92-.05-1.37a19.85 19.85 0 0 0-39.65 1.37z"/><path d="M415.81 142.02a8.58 8.58 0 0 1 .11 1.91 8.94 8.94 0 0 0 .05 1 2.92 2.92 0 0 0 .22.75c.8 1.88 3.42 3.1 5.14 1.89a5.51 5.51 0 0 0 1.55-2c1.84-3.41 4.39-7.33 8.4-7.4 1.71 0 3.32.69 5 1.12s3.62.47 4.86-.66c.94-.86 1.39-2.34 2.67-2.65s2.44.87 3 2 1.05 2.49 2.23 3.08c.53.26 1.14.33 1.66.61 2.37 1.3 1.28 5.85 3.74 6.59a2.1 2.1 0 0 0 .24.06l.12-1.22c.22-2.22.45-4.43.67-6.66a19.85 19.85 0 0 0-39.65 1.37z" opacity=".1"/><path fill="#3f3d56" d="M451.07 112.2c2.33 1 4.76 2.51 5.28 4.89a19 19 0 0 1 .11 3.2c.11 2.15 1.14 4.14 1.79 6.2s.89 4.46-.42 6.21c-.41.55-.95 1-1.32 1.58a6.38 6.38 0 0 0-.76 2.89l-1.08 10.73c-2.77-.51-1.54-5.31-4-6.65-.51-.28-1.12-.35-1.65-.61-1.18-.59-1.64-1.94-2.23-3.08s-1.73-2.31-3-2-1.72 1.78-2.66 2.65c-1.24 1.12-3.21 1.07-4.86.65s-3.26-1.14-5-1.12c-4 .07-6.57 4-8.4 7.4a5.43 5.43 0 0 1-1.55 2c-1.94 1.37-5-.35-5.36-2.64-.18-1.28.21-2.71-.52-3.79s-2.34-1.32-3.59-1.9c-3.19-1.47-4.18-5.45-3.65-8.79.38-2.4 1.34-4.88.56-7.19-.27-.8-.74-1.53-1-2.33-.7-2.25.44-4.73 2.24-6.32a18.31 18.31 0 0 1 6.48-3.25c5.95-2 12.19-3.92 18.52-4.33 2.77-.18 6.41-1.05 8.61.68 2.61 2.08 4.23 3.55 7.46 4.92z"/><circle cx="445.88" cy="174.39" r="1.09" opacity=".1"/><circle cx="445.88" cy="173.96" r="1.09" fill="#444053"/><circle cx="452.86" cy="242.88" r="1.09" opacity=".1"/><circle cx="452.86" cy="242.45" r="1.09" fill="#444053"/><circle cx="449.15" cy="260.99" r="1.09" opacity=".1"/><circle cx="449.15" cy="260.55" r="1.09" fill="#444053"/><path d="M411.66 191.63s-2.4 16.29 0 19.13 0-19.13 0-19.13zM483 221.88s4.58 9.87 0 19.33-7.42 13.31-5.89 19.35 5.89-38.68 5.89-38.68zM266.39 402.93c6.76 4.58 17 2.4 17 2.4s15.48-7.42 20.06-7.42 15.73-4.55 15.73-4.55l-.38-3.09c-4.52.87-14.79 2.95-16 4-1.53 1.31-20.29 7.64-20.29 7.64s-12.77-1.6-16.33-6.85c-2.33 2.36-3.33 5.47.21 7.87z" opacity=".1"/><g opacity=".1"><path d="M456.46 118.54v-.71.82a.41.41 0 0 0 0-.11zM411.86 137.1c1.25.57 2.83.78 3.59 1.89s.34 2.51.52 3.79c.34 2.29 3.42 4 5.36 2.65a5.46 5.46 0 0 0 1.55-2c1.83-3.4 4.39-7.32 8.4-7.39 1.71 0 3.32.69 5 1.11s3.62.48 4.86-.65c.94-.86 1.39-2.34 2.66-2.65s2.45.86 3 2 1.05 2.48 2.23 3.07c.53.26 1.14.34 1.65.62 2.45 1.34 1.22 6.13 4 6.65l1.08-10.74a6.41 6.41 0 0 1 .76-2.89c.37-.57.91-1 1.32-1.57a4.8 4.8 0 0 0 .89-2.31 5.53 5.53 0 0 1-.89 4.05c-.41.55-.95 1-1.32 1.58a6.38 6.38 0 0 0-.76 2.89l-1.08 10.73c-2.77-.51-1.54-5.31-4-6.65-.51-.28-1.12-.35-1.65-.61-1.18-.59-1.64-1.94-2.23-3.08s-1.73-2.31-3-2-1.72 1.78-2.66 2.65c-1.24 1.12-3.21 1.07-4.86.65s-3.26-1.14-5-1.12c-4 .07-6.57 4-8.4 7.4a5.43 5.43 0 0 1-1.55 2c-1.94 1.37-5-.35-5.36-2.64-.18-1.28.21-2.71-.52-3.79s-2.34-1.32-3.59-1.9c-2.92-1.34-4-4.79-3.75-7.92.22 2.59 1.37 5.08 3.75 6.18zM407.78 118.78c.25.8.72 1.53 1 2.33a7 7 0 0 1 .25 2.87 6.24 6.24 0 0 0-.25-1.12c-.27-.8-.74-1.53-1-2.33a4.9 4.9 0 0 1-.13-2.28c.04.18.08.35.13.53z"/></g><path d="M471.87 215.77c5-1.1 16.79-4.58 16.79-4.58l2.11-.42c0-7.32-.39-14.41-.53-16.82s-10 3.27-12.43 5-9.82 1.31-9.82 1.31-11.56.65-21.16 11.34 20.02 5.27 25.04 4.17z" opacity=".1"/><path fill="#be6f72" d="M520.89 196.3a2.91 2.91 0 0 1 .66 4.89c-2.66 2.2-6.54 4.83-10.24 5.21-6.18.62-21 3.6-22.53 3.9a1 1 0 0 0-.23.06c-1.23.36-12 3.5-16.68 4.53-5 1.1-34.69 6.56-25.09-4.13a33.91 33.91 0 0 1 21-11.33h.38c1.12.06 7.46.27 9.65-1.31a20.37 20.37 0 0 1 3.6-1.8 69.52 69.52 0 0 1 14.75-4.25l10.26-1.79a2.93 2.93 0 0 1 1.73.22z"/><path fill="#67647e" d="M499.35 167.79l4.8-.44s5.23 3.93 9.16 3.93 6.33 5 6.33 5 6.54 3.06 8.72 3.49 5.89 2.62 4.8 3.49.22 2.84 2.18 4.37 5 9.38 2.4 10.47-9.82 3.26-11.74 4.37a5.41 5.41 0 0 1-4.36 0s-11.64-15.05-17.49-12.22-14 2.84-14 2.84l-6.33-13.31z"/><path fill="#1890ff" d="M644.57 451.65s-8.68-2-14.36 3.85c0 0 3.66 3.3 12.24-.35zM645.51 451.58s5.13 7.27 1.88 14.74c0 0-4.44-2.13-4.31-11.46zM651.3 440.59s-3.07-6.67-17.71 1.4c0 0 1.58 4.45 7.8 4.51s8.05-2.63 9.91-5.91zM652.24 440.19s7.33-.34 6.92 16.36c0 0-4.68.65-7.6-4.84s-1.38-8.35.68-11.52zM657.37 427.18s-3.33-11.61-18.72-4.54c0 0 2.69 10.63 16.94 8.3zM663.07 410.53s-7-12-21.35-2.25c0 0 4.08 11.08 19.91 6.27zM665.79 394.51s-8.3-11.13-22.57-1.52c0 0 7.92 9.81 22.39 4.21zM668.25 378.93s-8.39-11.6-22.07-2.07c0 0 9.64 10.4 21.89 4.64zM668.36 364.96s-8.64-14.79-21.44-6c0 0 9.47 12.85 21.26 8.71zM667.23 348.56s-9.23-14.72-21.76-4.75c0 0 11.22 13 21.59 7.32zM664.81 333.8s-11.15-14-22-9.44c0 0 11.61 14.85 22.31 13zM661.53 319.75s-12.83-17.07-21.26-12.24c0 0 9.4 13.2 22.06 15.35zM656.53 303.36s-11.28-14-20.39-11.33c0 0 9.49 14.38 21.74 15.55zM652 288.05s-12.6-13.53-18.6-11.7c0 0 8.77 14.68 19 14.55zM647.58 273.89s-10.57-15.86-17-15.11c0 0 6.11 13.92 16.85 16.63zM643 254.9s-9.46-12.25-15-12.6c0 0 7 16 15.16 16.4zM640.36 242.28l-8.26-24.75s-2 21.74 9.22 29.3zM638.13 215.45s-.28-20.23.88-21.79c0 0-8.19 16.24-1.41 30.68zM657.77 426.94s10.68-5.66 16.27 10.33c0 0-9.53 5.44-17.74-6.44zM663.44 409.91s13-4.89 18 11.74c0 0-10.16 6-19.39-7.72zM666.31 395.51s9.71-9.92 22.57 1.52c0 0-9.16 8.66-22.75 1.17zM668.55 378.95s9.86-10.38 22.14.9c0 0-10.94 9-22.31 1.67z"/><path fill="#1890ff" d="M668.33 365.36s7.47-15.42 20.92-7.67c0 0-8.45 13.55-20.53 10.34zM666.43 348.42s7.44-15.69 21.06-7.27c0 0-9.63 14.2-20.59 9.81zM663.45 333.79s3.71-17.51 15.48-18.31c0 0-3.73 18.48-14.13 21.6zM661.23 319.76s2.41-21.22 12.13-21.33c0 0-1.42 16.15-11.24 24.41zM655.56 302.69s4.08-17.52 13.44-19.06c0 0-2.29 17.07-12.82 23.46zM650.93 288.11s1.33-18.44 7.15-20.78c0 0 2.38 16.94-5.68 23.24zM647.16 273.66s2.07-18.95 8.08-21.23c0 0 1 15.17-7.29 22.53zM642.07 256.36s1.07-15.44 5.48-18.79c0 0 3 17.2-3.51 22z"/><path fill="#1890ff" d="M640.9 241.55l5.78-25.44s4.1 21.44-6.28 30.07zM641.83 215.94s11.57-16.58 11.48-18.58c0 0-2.32 18-16 26.2zM641 210.75s11.47-23.9 16-25.59c0 0-14.51 6.2-16.82 24.83z"/><path fill="#444053" d="M643.2 258.85l.68-.16c-6.47-27.59-7.38-45-2.56-49l-.45-.54c-5.11 4.21-4.3 21.43 2.33 49.7z"/><path fill="#444053" d="M661.78 323.65l1-.28c-.71-2.54-1.49-5.11-2.32-7.66-7.2-22.14-13.22-42.7-16.91-58.42l-.84-.49c3.7 15.75 9.53 37.06 16.75 59.24.83 2.53 1.61 5.09 2.32 7.61z"/><path fill="#444053" d="M630.87 471.05c.14-.14 14.59-14.36 25.69-39.56A152.7 152.7 0 0 0 668.79 385c2-20.06-.72-42.78-6.58-63.65l-.85.86c13.15 46.85 4.07 85.62-6.06 108.65-11 25-25.27 39-25.41 39.19z"/><path fill="url(#c)" d="M1092.82 779l-27.67-40.12s-.51-9.93-2.32-12.25-.39-7.49-.39-7.49 1.94-2.83.26-3.09-.26-6.58-.26-6.58l-.13-10.06s1.55-9.68.26-12a3.79 3.79 0 0 1 .13-4.13s1.55-5.54 0-7-1.17-10.06-.78-16.9-2.72-10.71-2.72-11.74-10.21-11.09-10.21-12-6.47-4.64-10.35-5.67-5.81-1.81-5.68-2.32-6.08-2.58-6.08-2.58-5.43-.39-7.5-3.1-8.4-3.49-8.58-3.52l-.12-.54c0-.19-.08-.39-.11-.58.48-.82.94-1.66 1.35-2.53.12-.26.24-.52.35-.79a11 11 0 0 0 6.37-2 8.69 8.69 0 0 0 3.1-6.19 13.53 13.53 0 0 0-1.52-6.87c-1.13-2.32-2.8-4.73-2.22-7.25.25-1.09.9-2 1.23-3.11a8.15 8.15 0 0 0-.92-6.11c-1-1.87-2.35-3.52-3.44-5.33a21.22 21.22 0 0 1-2.73-7.55 11.5 11.5 0 0 0-1-4.11 7.59 7.59 0 0 0-2.26-2.29 22.71 22.71 0 0 0-13.9-4.21c-3.52.12-7 1.07-10.53.64a38.81 38.81 0 0 1-6.14-1.61c-4.34-1.28-9.34-1.81-13.12.67s-5.28 7.37-7.84 11.19c-2.26 3.37-5.57 6.2-7.3 9.78l.06-.21a11.82 11.82 0 0 0-1 2.61c-.66 2.81-.11 5.75.57 8.56.35 1.44.83 3 2.09 3.82s3 .62 4.52.88c-.06.25-.12.49-.17.74a28.94 28.94 0 0 0-.65 6.14 29.56 29.56 0 0 0 21.15 28.31v.79c0 .77-.06 1.5-.14 2.21s-13-2.67-16.49-.86-10.35 3.22-11.38 4.25-3.62.26-5.95 6.32-2.59 12.26-5.56 15.1-4.53 4.77-4.66 6.83.39 2.58-.77 3.23-2.85 3.35-2.33 4.38c0 0 .65 2.58-1.42 3.87a4.31 4.31 0 0 0-1.81 3.87s-.78 2.84-2.59 3.49-3 4.9-3 4.9l-5.87 6.74-11.55-12.79a4.89 4.89 0 0 0-6.91-.36l-5.71 5.13a11.38 11.38 0 0 0-5.71 3.4 15 15 0 0 0-3 4.41l-3.13 2.81a7.93 7.93 0 0 0-.8 8.76l7.45 8.24v.07a13.14 13.14 0 0 0-7.2 2.93c-11.11 9.8-11.25 18.84-9.56 23s15.77 20 15.77 20 8.19 10.64 20 16.3l-.09.09q-.35.38-.69.81l-.19.24-.18.25-.21.31-.17.26c-.07.12-.15.24-.22.37l-.14.24-.27.5a1.3 1.3 0 0 1-.08.17c-.11.23-.22.46-.32.7l-.11.27-.2.51c0 .11-.08.22-.11.33s-.12.33-.17.51-.08.24-.11.36-.11.37-.16.57l-.09.35c-.07.3-.14.6-.2.92l-.06.37-.12.66-.06.47c0 .21-.06.42-.08.64s0 .33-.05.49l-.06.74v1.7c-.26 15.09.62 17.29.62 17.29s1.83 4.8 6.86 5.15a9 9 0 0 0 2.22-.12c6.72-1.16 22.49-3.87 28-2.84 3.35.62 9.53-.3 13.94-1.13l1.16-.22.81 2.56 2.56-.7c.82.48 1.56.91 2.17 1.25l1.37.79c2.55 8.66 12.91 5.7 12.91 5.7l2.46 1.42 25 .65a50.93 50.93 0 0 0 8.83 4.24 7.76 7.76 0 0 0 1.26.27 55.48 55.48 0 0 0 6.95.13c1.91 0 3.39-.13 3.39-.13s-.25-6.77-.61-14.36c9.53-.39 18-1 23.11-1.89 13.32-2.34 18.89-14.46 20.93-20.94a59.88 59.88 0 0 1 1.31 8 59.09 59.09 0 0 0 2.07 7 23.71 23.71 0 0 0 2.84 5.16c9.83-3.36 3.88-8.39 1.82-10.58s1.42-4 1.42-4 2.71-1.81 2.45-3.48-.38-3.49 8.41-3.36 8.4-7.22 8.4-7.22zm-136.53-82.38c.11.74 1.33 8.68 2.44 10.78a13.93 13.93 0 0 1 .29 4.24c-5.2-.41-10.63-.63-10.63-.63a1.32 1.32 0 0 1 .28.66l-.82-.18-1.19-.3 9.6-14.59zm-19 30.25l9 1.43.76.12a28.7 28.7 0 0 0-.47 4.26c0 .13.2.3.49.48a11.67 11.67 0 0 0-.17 2.13c.14.72 4.36 2.26 9.19 3.54-.06.26-.13.51-.2.74-4.27-2.25-11-3.3-11.77-5s-23.66-9.66-23.66-9.66-.84-.45-2.28-1.14l6 1.14 1.65-.17a89.89 89.89 0 0 0 11.44 2.13z" transform="translate(-28 -62.64)"/><path fill="#65617d" d="M1035.39 721.96s-3.59 21.66-21.78 24.86-78.95 2.54-78.95 2.54-34.73-5-47.28-34.34-20.64-41-9.87-41.52 68.82 19.6 72.15 19.86 88.94-44.58 85.73 28.6z"/><path d="M1035.39 721.96s-3.59 21.66-21.78 24.86-78.95 2.54-78.95 2.54-34.73-5-47.28-34.34-20.64-41-9.87-41.52 68.82 19.6 72.15 19.86 88.94-44.58 85.73 28.6z" opacity=".05"/><path fill="#3f3d56" d="M872.49 746.05s1.81 4.78 6.8 5.12a8.77 8.77 0 0 0 2.19-.12c6.66-1.15 22.3-3.85 27.81-2.82 3.31.62 9.44-.29 13.81-1.12 2.9-.55 5-1.06 5-1.06s-5.13-17-5.77-17.56-23.07-14-23.07-14l-17.76-1.28a9.35 9.35 0 0 0-6 3.53c-1.88 2.27-3.48 6-3.59 12.1-.3 15.03.58 17.21.58 17.21z"/><path d="M872.49 746.05s1.81 4.78 6.8 5.12a75 75 0 0 1-4.83-7l.1-12.43a21.89 21.89 0 0 1 7-18.45s-9.35.63-9.61 15.63.54 17.13.54 17.13z" opacity=".05"/><path d="M949.53 718.88l16.53-12.94 26-25.63s-2.81-.14-7.05-.32c-1.06.67-4 2.79-4.12 5.36-.13 3.13-7 .21-10.62 2s-21.14 24.26-24.22 24.11-5.51-1.56-6.79.62l-.1.14zM875.46 716.78c.59.29 1.18.56 1.79.82 12.56 5.38 28.07 16.66 29.22 18.71.7 1.25 9.69 6.71 16.63 10.8 2.9-.55 5-1.06 5-1.06s-5.13-17-5.77-17.56-23.07-14-23.07-14l-17.76-1.28a9.35 9.35 0 0 0-6.04 3.57z" opacity=".1"/><path fill="#65617d" d="M840.6 680.05c1.67 4.1 15.63 19.87 15.63 19.87s8.85 11.53 21.41 16.91 28.06 16.66 29.21 18.71c.75 1.32 10.75 7.35 17.81 11.49l1.58.92c1.38.81 2.58 1.51 3.5 2l1.85 1.07s4.29-3.45 8.56-6.91 8.42-6.87 8.48-7.06c.13-.38 1.8-4.74 1.41-5-.2-.13-1.08-1.9-2.7-4a18.06 18.06 0 0 0-6.53-5.39c-5.89-2.7-8.45-8.82-8.45-8.82s-.57-.41-1.41-.95a17.09 17.09 0 0 0-5.77-2.57c-2.82-.35-8.07-6.12-8.07-6.12s-3.59-2.3-5-5.25-21.22-16.46-23.06-17.72l48.18 30.94 11.53 7.41 16.53-12.94 26-25.63s-3.5-.17-8.59-.39c-12.64-.55-35.1-1.4-37.93-.77a21.64 21.64 0 0 1-7 .47s-6.4.28-10.63-1.95-10.9-3.28-11.67-4.93S892 663.9 892 663.9s-30.89-16.4-41.91-6.66-11.16 18.71-9.49 22.81z"/><path fill="#ee8e9e" d="M940.18 585.99l4 13.2 5.12 29.73 18.84 1.28 5.46-9 5.44-9s3.39-12 5.82-23.63c2.16-10.29 3.57-20.27 1.22-21.35-2.08-1-3.44-4.42-4.33-8.15-.11-.46-.22-.93-.31-1.39a71.87 71.87 0 0 1-1.25-9.56s-39.47-2.05-34 14.23a25.78 25.78 0 0 1 1.48 8.65 19.6 19.6 0 0 1-.13 2.21 18.48 18.48 0 0 1-7.36 12.78z"/><path fill="#e3e8f4" d="M932 583.81l1.41 22.42 3.21 19.1 3.59 8.84 3.2 48.38s30.9 3.58 38.41-.06a3.26 3.26 0 0 0 1.36-1.06c9.08-13.71 6.11-53.41 6.11-53.41l3.46-25.63-2.31-13.3-5.58-.59-4.29-.46s-1 1.19-2.36 3c-3.8 5-10.79 14.88-10.32 19 .64 5.64-.77 11.41-3 12.3s-4 2.44-4.36.9-.77-1.92-.38-4.1-1.65-8.78-1.65-8.78-3.46-7.82-3.2-11.15-.39-7.18-1.41-8.08-2.44-1.79-1.28-5.89-5.06-12.08-5.06-12.08z"/><path d="M972.79 639.82l1.28 38.32 7.4 4.1a3.18 3.18 0 0 0 1.36-1.06c9.08-13.71 6.11-53.41 6.11-53.41l3.46-25.63-2.31-13.3-5.58-.59c2.16-10.29 3.57-20.26 1.22-21.35-2.08-1-3.45-4.42-4.33-8.14l-4 27.11s.34 2.44.46 5a14.3 14.3 0 0 1-.33 4.78c-.9 2.3-.25 6.4-.25 6.4-2.32 4.08-3.47 11.62-4 18.9-.78 9.64-.49 18.87-.49 18.87z" opacity=".1"/><path fill="#3f3d56" d="M981.52 558.14s6.46.81 8.51 3.5 7.43 3.07 7.43 3.07 6.15 2 6 2.57 1.8 1.28 5.64 2.3 10.25 4.75 10.25 5.64 10.13 10.9 10.13 11.92 3.07 4.87 2.69 11.66-.77 15.38.77 16.79 0 6.92 0 6.92a3.79 3.79 0 0 0-.13 4.1c1.28 2.31-.26 11.92-.26 11.92l.13 10s-1.41 6.28.26 6.53-.26 3.08-.26 3.08-1.41 5.12.39 7.43 2.3 12.18 2.3 12.18l27.43 39.85s.38 7.31-8.33 7.18-8.59 1.66-8.33 3.33-2.44 3.46-2.44 3.46-3.46 1.79-1.41 4 8 7.18-1.79 10.51a23.34 23.34 0 0 1-2.82-5.12 58.5 58.5 0 0 1-2-6.93s-.9-9.73-2.69-11-1.54-7.43-1.54-7.43 2.56-5-1-7.05-55.61-30.88-55.61-30.88l-1.29-38.32s-.89-28.32 4.49-37.81c0 0-.64-4.1.26-6.4s-.13-9.74-.13-9.74z"/><path d="M947.93 573.52s-12.88-2.65-16.34-.86-10.25 3.2-11.28 4.23-3.59.25-5.89 6.28-2.57 12.17-5.51 15-4.49 4.74-4.62 6.79.39 2.57-.77 3.21-2.82 3.33-2.3 4.36 26.65 23.58 26.65 23.58 1.28 8.58 2.44 10.76-1.28 32.17-3.85 34.22 17.3 1.86 17.3 1.86.9-19.68 1.67-20.7-.51-22-.51-22-.13-17.94 1.53-22.69 1.48-20.5 1.48-20.5 1.48-9.46 3.27-11.66-3.27-11.88-3.27-11.88z" opacity=".1"/><path fill="#3f3d56" d="M947.55 573.14s-12.89-2.66-16.35-.86-10.25 3.2-11.27 4.22-3.59.26-5.9 6.28-2.56 12.18-5.51 15-4.48 4.74-4.61 6.79.38 2.56-.77 3.2-2.82 3.34-2.31 4.36 26.66 23.58 26.66 23.58 1.28 8.59 2.43 10.77-1.28 32.16-3.84 34.21 17.3 1.86 17.3 1.86.9-19.67 1.66-20.7-.51-22-.51-22-.13-17.94 1.54-22.68 1.48-20.51 1.48-20.51 1.47-9.46 3.26-11.66-3.26-11.86-3.26-11.86z"/><path d="M946.2 562.28a25.78 25.78 0 0 1 1.48 8.65 29.05 29.05 0 0 0 8.39 1.22 29.35 29.35 0 0 0 25.34-14.54 71.87 71.87 0 0 1-1.25-9.56s-39.47-2.05-33.96 14.23z" opacity=".1"/><path fill="#ee8e9e" d="M926.72 542.03a29.35 29.35 0 1 0 .64-6.1 29.35 29.35 0 0 0-.64 6.1z"/><path fill="#3f3d56" d="M907.88 609.95l-7 2.18a3.67 3.67 0 0 1-1.41 3.85 4.27 4.27 0 0 0-1.79 3.84s-.77 2.82-2.57 3.46-2.94 4.87-2.94 4.87l-5.9 6.79s-2.18 1.8-1.79 2.69-2.31 1.16-2.31 1.16l1.41 22.81 12.18 2.3 7.56-.76 6.15-2.31 5.38-3.2 2.44-6.28L928 634.94z"/><path fill="#ee8e9e" d="M883.92 640.58s-15.64-22.55-27.3-10.38 4.74 31.91 8.58 31.27 22.18-1.67 22.18-1.67z"/><rect width="81.83" height="63.54" x="858.91" y="672.36" fill="#3f3d56" rx="1.54" ry="1.54" transform="rotate(27.04 1015.975 614.442)"/><path fill="#1890ff" d="M853.006 602.727l61.262 31.269-23.563 46.164-61.261-31.268z"/><circle cx="838.91" cy="624.56" r="1.13" fill="#e6e8ec"/><circle cx="905.22" cy="658.54" r="1.86" fill="#e6e8ec"/><path fill="#ee8e9e" d="M873.79 645.36c-.13 16.92 34.86 20.51 34.86 20.51l8.94 1.41 4 .64 1.67-16.56s-1.83-.28-4.13-.81c-3.38-.79-7.77-2.15-8.69-4.06-1.54-3.22-36.52-18.08-36.65-1.13z"/><path d="M927.36 535.93a3.5 3.5 0 0 1 2.14 1c1 1.05 1 2.91 2.34 3.56a2.57 2.57 0 0 0 1.53.17c3.4-.48 5.38-4.33 8.65-5.38a8.61 8.61 0 0 1 5.73.49 4.33 4.33 0 0 1 1.9 1.22c1.09 1.42.33 3.5.83 5.21.71 2.38 3.55 3.33 6 3.64s5.23.49 6.87 2.34a6.24 6.24 0 0 1 1.23 5 3.82 3.82 0 0 0 0 1.84c.68 1.92 4 1.63 4.87.12.64-1.11.44-2 1.94-2.33a6.32 6.32 0 0 1 3.14.54 23.05 23.05 0 0 0 8.11 1.25 29.35 29.35 0 1 0-55.27-18.59z" opacity=".1"/><path fill="#3f3d56" d="M964.57 554.17a4 4 0 0 1 0-1.84 6.19 6.19 0 0 0-1.22-5c-1.64-1.85-4.41-2-6.87-2.34s-5.3-1.25-6-3.63c-.5-1.72.26-3.81-.83-5.22a4.33 4.33 0 0 0-1.9-1.22 8.67 8.67 0 0 0-5.73-.49c-3.27 1-5.25 4.9-8.65 5.38a2.57 2.57 0 0 1-1.53-.17c-1.29-.65-1.35-2.51-2.34-3.56-1.55-1.65-4.5-.58-6.41-1.81-1.24-.79-1.72-2.35-2.07-3.79-.68-2.79-1.22-5.71-.57-8.5 1.12-4.77 5.38-8 8.1-12.11 2.53-3.79 4-8.59 7.77-11.1s8.7-2 13-.67a38.47 38.47 0 0 0 6.09 1.6c3.47.42 7-.52 10.43-.64a22.41 22.41 0 0 1 13.78 4.19 7.61 7.61 0 0 1 2.25 2.27 12 12 0 0 1 1 4.08 20.92 20.92 0 0 0 2.7 7.5c1.08 1.8 2.43 3.44 3.4 5.3a8.08 8.08 0 0 1 .92 6.07c-.33 1.06-1 2-1.22 3.09-.57 2.5 1.08 4.89 2.2 7.2a13.47 13.47 0 0 1 1.5 6.83 8.57 8.57 0 0 1-3.07 6.14 11 11 0 0 1-6.5 2 22.8 22.8 0 0 1-8.27-1.24 6.43 6.43 0 0 0-3.14-.54c-1.5.31-1.3 1.22-1.94 2.33-.88 1.52-4.2 1.81-4.88-.11z"/><path d="M948.76 719.65l16.53-12.94 26-25.63s-3.5-.17-8.59-.39a5.61 5.61 0 0 0-1.81 3.5c-.13 3.14-7 .22-10.62 2s-21.12 24.28-24.2 24.17-5.51-1.56-6.79.62l-.1.14a3.65 3.65 0 0 1-1.95 1.16z" opacity=".1"/><path fill="#65617d" d="M915.44 718.75l8.31 26.52 1.3 4.16 4-1.08 8.73-2.39 38.84-10.67a33.8 33.8 0 0 0 14-3.73 42.36 42.36 0 0 1 24.14-5.27c5.13.49 10.84-1.73 15.58-10.48 0 0 10.76-31.78-16.41-40.88s-28.46 4.83-28.46 4.83l-.37.23c-1.06.67-4 2.79-4.12 5.36-.13 3.13-7 .21-10.62 2s-21.14 24.26-24.22 24.11-5.51-1.56-6.79.62l-.1.14c-.95 1.31-3.8 1.62-5.69 1.67h-1.77l-.24.08-2 .58z"/><path d="M917.59 667.24l4 .64 1.67-16.52s-1.83-.28-4.13-.81c.61 2.3-.76 11.21-1.54 16.69z" opacity=".1"/><path d="M1022.38 590s11.92-3.46 9 30.37-25 55.23-25 55.23-25.37 11.15-36.78 9.36-19.74-2.18-19.74-2.18a29 29 0 0 0-11.53-3.08c-6.41-.25-19.86-4.23-20.12-5.51s3.33-20.12 1.8-21.53c0 0 17.94.74 19.73 2s4.36.36 6.28 0 7.82-5.5 19.48-1c0 0 4 .38 5.51-.64s4-.26 4-.26a11.29 11.29 0 0 0 2.78-1.41c.39-.51 3.46 0 3.46 0a1.36 1.36 0 0 0 1.92-.89 8.46 8.46 0 0 1 1.8-2.82s3.46-19.48 10-26.79c0 0 1.92-1.66 1.4-3.71S1007 585.9 1022.38 590z" opacity=".1"/><path fill="#3f3d56" d="M1022.06 587.36s11.92-3.46 9 30.37-25 55.23-25 55.23-25.38 11.15-36.78 9.36-19.74-2.18-19.74-2.18A29 29 0 0 0 938 677.1c-6.41-.25-19.87-4.22-20.12-5.51s3.33-20.12 1.79-21.53c0 0 17.94.74 19.74 2s4.35.37 6.28 0 7.81-5.5 19.47-1c0 0 4 .38 5.52-.64s4-.26 4-.26a11.14 11.14 0 0 0 2.79-1.41c.38-.51 3.46 0 3.46 0a1.36 1.36 0 0 0 1.92-.89 8.34 8.34 0 0 1 1.79-2.82s3.46-19.48 10-26.79c0 0 1.92-1.66 1.41-3.71s10.64-31.24 26.01-27.18z"/><path d="M929.5 714.54l16.93 20.49.11-.12c.13-.39 1.79-4.75 1.41-5s-3.33-6.67-9.23-9.36a17.48 17.48 0 0 1-7.24-6.59z" opacity=".1"/><path d="M929.74 749.98l1.85 1.07s4.29-3.45 8.56-6.91 8.42-6.87 8.48-7.06c.13-.38 1.8-4.74 1.41-5-.2-.13-1.08-1.9-2.7-4-11.47-3.21-4.17 4.75-3.19 5.12 0 0-14-3.21-14.74 12a18 18 0 0 0 .33 4.78z" opacity=".1"/><path fill="#3f3d56" d="M943.89 756.43l2.44 1.41 24.73.64s5.31 3.21 8.75 4.21a7.76 7.76 0 0 0 1.25.28 56.41 56.41 0 0 0 6.89.13c1.89 0 3.36-.13 3.36-.13s-1.17-31.19-2-34.48c-.43-1.57-2.5-1.22-4.54-.44a30.66 30.66 0 0 0-4.43 2.25s-10.51 1-12.18 1.92-6.4-.52-9.35 0-8.2-3.47-8.2-3.47c-14.36-4.74-6.29 4.1-5.26 4.49 0 0-14-3.21-14.74 12s13.28 11.19 13.28 11.19z"/><path fill="#565387" d="M979.64 744.36c.27 6.45 5.31 14.47 8.31 18.71 1.89 0 3.36-.13 3.36-.13s-1.17-31.19-2-34.48c-.43-1.57-2.5-1.22-4.54-.44-2.54 4.69-5.34 11.16-5.13 16.34z"/><path d="M979.64 744.36c.27 6.45 5.31 14.47 8.31 18.71 1.89 0 3.36-.13 3.36-.13s-1.17-31.19-2-34.48c-.43-1.57-2.5-1.22-4.54-.44-2.54 4.69-5.34 11.16-5.13 16.34z" opacity=".1"/><path d="M975.42 745.24c1.7 6.24 1.68 13.23 4.39 17.45a7.76 7.76 0 0 0 1.25.28 56.41 56.41 0 0 0 6.89.13c1.89 0 3.36-.13 3.36-.13s-1.17-31.19-2-34.48c-.43-1.57-2.5-1.22-4.54-.44a30.66 30.66 0 0 0-4.43 2.25s-7.1 6.96-4.92 14.94z" opacity=".05"/><path d="M890.09 682.01s12.28 4 22.69 18.16z" opacity=".1"/><g opacity=".1"><path d="M989.92 528.24c0 .09 0 .18-.08.27a8.78 8.78 0 0 1-.42 1.07 7 7 0 0 1 .5-1.34zM920.41 522.02a12.18 12.18 0 0 1 1-2.59c-.07.22-.14.44-.19.67-.65 2.79-.11 5.71.57 8.5.35 1.43.82 3 2.07 3.79 1.9 1.23 4.86.16 6.41 1.81 1 1 1 2.91 2.34 3.55a2.57 2.57 0 0 0 1.53.18c3.4-.48 5.37-4.33 8.65-5.39a8.68 8.68 0 0 1 5.73.5 4.25 4.25 0 0 1 1.9 1.22c1.09 1.41.32 3.5.83 5.21.71 2.38 3.54 3.33 6 3.64s5.23.48 6.87 2.34a6.19 6.19 0 0 1 1.22 5 4 4 0 0 0 0 1.84c.68 1.92 4 1.63 4.87.11.63-1.1.44-2 1.94-2.32a6.32 6.32 0 0 1 3.14.54 23 23 0 0 0 8.27 1.24 11.06 11.06 0 0 0 6.5-2 7.64 7.64 0 0 0 2-2.42 8.1 8.1 0 0 1-2.76 4.34 11 11 0 0 1-6.5 2 22.8 22.8 0 0 1-8.27-1.24 6.43 6.43 0 0 0-3.14-.54c-1.5.31-1.31 1.22-1.94 2.33-.87 1.51-4.19 1.8-4.87-.12a4 4 0 0 1 0-1.84 6.19 6.19 0 0 0-1.22-5c-1.64-1.85-4.41-2-6.87-2.34s-5.3-1.25-6-3.63c-.51-1.72.26-3.81-.83-5.22a4.33 4.33 0 0 0-1.9-1.22 8.67 8.67 0 0 0-5.73-.49c-3.27 1-5.25 4.9-8.65 5.38a2.57 2.57 0 0 1-1.53-.17c-1.29-.65-1.35-2.51-2.34-3.56-1.55-1.65-4.5-.58-6.41-1.81-1.24-.79-1.72-2.35-2.07-3.79-.73-2.79-1.27-5.71-.62-8.5z"/></g><path d="M991.9 624.59c-2.34 3.17-5 6.1-7.1 9.46s-3.55 7.26-3.12 11.18c2.15-2.2 3.14-5.25 4.49-8 2.3-4.69 5.73-8.66 8.63-13 .55-.82 4.09-5.57 2.3-5.8-1.48-.17-4.4 5.08-5.2 6.16z" opacity=".1"/></svg>