<?xml version="1.0" encoding="UTF-8"?>
<svg width="1040" height="640" data-name="Layer 1" version="1.1" viewBox="0 0 1040.0001 639.99999" xmlns="http://www.w3.org/2000/svg"><title>pizza sharing</title><g transform="matrix(3.78 0 0 3.78 -56.43 -159.7)"><g transform="translate(0,-87)"><g transform="matrix(.2646 0 0 .2646 14.95 145.8)"><path transform="translate(-79.34 -161.2)" d="m1041 622.8q-1.74 3.75-3.47 7.4-2.7 5.67-5.33 11.12c-.78 1.61-1.56 3.19-2.32 4.77-8.6 17.57-16.63 33.11-23.45 45.89a73.21 73.21 0 0 1 -63.81 38.73l-151.6 1.65h-1.6l-13 .14-11.12.12-34.07.39h-1.38l-17.36.19h-.53l-107 1.16-95.51 1-11.11.12-69 .75h-.11l-44.75.48h-.48l-141.5 1.53-42.33.46a88 88 0 0 1 -10.79 -.54c-1.22-.14-2.44-.3-3.65-.49a87.38 87.38 0 0 1 -51.29 -27.54c-18.21-20.12-31.46-43.42-40.36-68.81q-1.93-5.49-3.6-11.12c-30.81-104.2 6.75-238.6 74.35-328.4q4.25-5.64 8.64-11l.07-.08c20.79-25.52 44.1-46.84 68.93-62 44-26.91 92.75-34.49 140.7-11.9 40.57 19.12 78.45 28.11 115.2 30.55 3.71.24 7.42.42 11.11.53 84.23 2.65 163.2-27.7 255.9-47.29 3.69-.78 7.39-1.55 11.12-2.28 66.13-13.16 139.5-20.1 226.7-5.51a189.1 189.1 0 0 1 26.76 6.4q5.77 1.86 11.12 4c41.64 16.94 64.35 48.24 74 87.46q1.37 5.46 2.37 11.11c17.11 94.34-33 228.2-76.37 321z" style="fill:#f2f2f2"/><path transform="translate(-79.34 -161.2)" d="m576.4 630.2a95.22 95.22 0 0 1 -1.87 11.12h93.7v-11.12zm-78.25 62.81 11.11-.09v-27.47c-3.81-.17-7.52-.34-11.11-.52zm-232.9-62.81v11.12h198.5v-11.12zm849.7-339.6h-74v-87.46q-5.35-2.18-11.12-4v91.5h-253.5v-92.43c-3.73.73-7.43 1.5-11.12 2.28v90.11h-255.9v-42.82c-3.69-.11-7.4-.29-11.11-.53v43.35h-255.9v-62c-24.83 15.16-48.14 36.48-68.93 62h-.07v.08q-4.4 5.4-8.64 11h8.64v328.5h-83q1.66 5.63 3.6 11.12h79.39v93.62a87 87 0 0 0 12.2 2.79c1.21.19 2.43.35 3.65.49a88 88 0 0 0 10.79 .54l42.33-.46v-97h255.9v94.21l11.11-.12v-94.07h255.9v91.31l11.12-.12v-91.19h253.5v4.77c.76-1.58 1.54-3.16 2.32-4.77q2.63-5.44 5.33-11.12 1.73-3.65 3.47-7.4v-321h76.42q-1.01-5.69-2.37-11.15zm-872.6 339.6v-328.4h255.9v328.4zm267 0v-328.4h255.8v328.4zm520.5 0h-253.5v-328.4h253.5z" style="opacity:.1"/><path transform="translate(-79.34 -161.2)" d="m914.1 514.3a186.9 186.9 0 0 0 -57.35 -64.25 12.69 12.69 0 0 0 -5.73 -2.16c2.81-18.48 2.22-38.9-8.21-54.3-24.75-36.54-150.8 1.17-150.8 1.17-88.39-30.64-165 8.25-165 8.25s-97.82-15.32-142.6-3.53c-21.12 5.56-26.25 27.1-25.77 48.32h-.07a12.45 12.45 0 0 0 -9.75 4.68c-11.91 14.88-47.89 60.71-46.91 69.56 1.18 10.61 40.07 148.5 38.31 215.1l543.3-6s9-134 31.51-207.4a12.44 12.44 0 0 0 -.87 -9.47z" style="fill:#3f3d56"/><polygon points="267.9 361.4 290.3 316.6 309.1 403.8 309.3 444.3" style="opacity:.1"/><polygon points="781.7 361.4 759.3 316.6 733.3 399.3 738.3 446.3" style="opacity:.1"/><polygon points="307.5 401.5 733.4 399.1 738.1 446.3 309.1 445.1" style="fill:#3f3d56"/><polygon points="307.5 401.5 733.4 399.1 738.1 446.3 309.1 445.1" style="opacity:.1"/><rect x="307.3" y="441.7" width="433" height="50.68" rx="10.47" style="fill:#fff;opacity:.1"/><path transform="translate(-79.34 -161.2)" d="m731.1 433.4s-1.44-2-3.14-.92c-.81.53-4.62 5.33-8.36 10.21-1.84 2.39-3.67 4.8-5.12 6.72-1.79 2.36-3 4-3 4l-.72 1.35-4.37 8.17-4.11 7.68-1 3.62 13.88 4.72 15.8-4.31-.68-2.93-.12-.5.13-6.74.36-19 .17-8.55v-1z" style="fill:#ffe09c"/><path transform="translate(-79.34 -161.2)" d="m699.3 480.2s15 5.35 22.69 2.55c0 0 6.65-2.12 9.27-4.17 0 0 2.79-1.46-1-6.22 0 0-9.71 5.95-18.9 3.61l-9.19-2.35z" style="fill:#e7c4c3"/><ellipse transform="rotate(-30.37 377.1 535.4)" cx="713.9" cy="469.9" rx="4.91" ry="4.16" style="fill:#ff7f8e"/><ellipse transform="rotate(-30.37 387.1 523.5)" cx="723.9" cy="458" rx="4.91" ry="4.16" style="fill:#ff7f8e"/><path transform="translate(-79.34 -161.2)" d="m730.2 464.5a5.14 5.14 0 0 0 -4.68 .37c-2.34 1.37-3.3 4.09-2.13 6.07s4 2.48 6.33 1.11c.16-.1.32-.2.47-.31l-.12-.5z" style="fill:#ff7f8e"/><path transform="translate(-79.34 -161.2)" d="m713.3 456.5a3.83 3.83 0 0 0 -2.56 -1.78l-4.37 8.17a5.11 5.11 0 0 0 4.8 -.32c2.34-1.37 3.29-4.09 2.13-6.07z" style="fill:#ff7f8e"/><path transform="translate(-79.34 -161.2)" d="m723 444.6a4 4 0 0 0 -3.41 -1.88c-1.84 2.39-3.67 4.8-5.12 6.72l.06.12c1.16 2 4 2.47 6.34 1.1s3.27-4.08 2.13-6.06z" style="fill:#ff7f8e"/><path transform="translate(-79.34 -161.2)" d="m730.8 436.9a5.62 5.62 0 0 0 -1.47 .6c-2.34 1.37-3.29 4.09-2.13 6.07a4 4 0 0 0 3.43 1.88z" style="fill:#ff7f8e"/><path transform="translate(-79.34 -161.2)" d="m707.5 469.7-.8-1.35a8.61 8.61 0 0 0 3.24 -1.8c.06-.06.11-.13.16-.19 1-1.26.79 1.36.79 1.36s-2.46 2.09-3.39 1.98z" style="fill:#94cc79"/><path transform="translate(-79.34 -161.2)" d="m719.3 467.6-.8-1.36a8.68 8.68 0 0 0 3.24 -1.8c0-.06.11-.12.16-.19 1-1.25.79 1.36.79 1.36s-2.46 2.1-3.39 1.99z" style="fill:#94cc79"/><path transform="translate(-79.34 -161.2)" d="m718.2 462-.8-1.36a8.68 8.68 0 0 0 3.24 -1.79c.05-.07.11-.13.16-.19 1-1.26.79 1.35.79 1.35s-2.46 2.08-3.39 1.99z" style="fill:#94cc79"/><path transform="translate(-79.34 -161.2)" d="m719.6 451.9-.8-1.36a8.68 8.68 0 0 0 3.24 -1.8c0-.06.11-.12.16-.19 1-1.26.79 1.36.79 1.36s-2.46 2.09-3.39 1.99z" style="fill:#94cc79"/><path transform="translate(-79.34 -161.2)" d="m726.4 439.7-.79-1.36a8.6 8.6 0 0 0 3.23 -1.8 1.46 1.46 0 0 0 .16 -.19c1-1.25.8 1.36.8 1.36s-2.47 2.09-3.4 1.99z" style="fill:#94cc79"/><path transform="translate(-79.34 -161.2)" d="m725.6 452.2-.8-1.36a8.6 8.6 0 0 0 3.24 -1.79c0-.07.11-.13.16-.19 1-1.26.79 1.35.79 1.35s-2.46 2.1-3.39 1.99z" style="fill:#94cc79"/><path transform="translate(-79.34 -161.2)" d="m696.8 476s-1.92 5 2.46 4.2a17.34 17.34 0 0 0 3.87 -7.91s9.47-20.75 12.27-22.65c0 0 12.34-16.87 13.67-17.12 0 0 .43-1.64-3.88 1.83s-13.75 16.83-13.75 16.83l-9 14.67-2.12 5.85z" style="fill:#e7c4c3"/><path transform="translate(-79.34 -161.2)" d="m696.8 476s-1.92 5 2.46 4.2a17.34 17.34 0 0 0 3.87 -7.91s9.47-20.75 12.27-22.65c0 0 12.34-16.87 13.67-17.12 0 0 .43-1.64-3.88 1.83s-13.75 16.83-13.75 16.83l-9 14.67-2.12 5.85z" style="fill:#fff;opacity:.2"/><path transform="translate(-79.34 -161.2)" d="m548.1 577.6a120.3 120.3 0 0 0 6.08 15.86 147.3 147.3 0 0 0 20.27 -5.78c.21-.07-3.79-5.3-4.21-5.73a20.12 20.12 0 0 0 -5.73 -4.4c-2.11-.92-4.71-.22-7-.1q-4.68.24-9.41.15z" style="fill:#fbbebe"/><path transform="translate(-79.34 -161.2)" d="m564.5 585.8c-3.44-1.08-5.54-4.55-6.94-7.89s-2.53-7-5.19-9.44a3.09 3.09 0 0 0 -2.34 1.76 29.32 29.32 0 0 1 -1.39 2.74c-1.1 1.6-3 2.38-4.45 3.74s-2.26 3.43-3.77 4.8c-1.9 1.72-4.58 2.15-7.07 2.72a45.16 45.16 0 0 0 -11.08 4.1 18.59 18.59 0 0 1 -4.1 1.84 15.14 15.14 0 0 1 -4.8 .16l-11-.78a8.78 8.78 0 0 0 -2.94 .12 5.36 5.36 0 0 0 -3.5 5.53 8.6 8.6 0 0 0 3.48 5.93 23.47 23.47 0 0 0 6.28 3.17 185 185 0 0 0 29.54 8.44v2.18a50.85 50.85 0 0 0 22.49 5.24 3.56 3.56 0 0 0 1.68 -.29 3.64 3.64 0 0 0 1.42 -2.16 87.26 87.26 0 0 0 4.59 -24 18.24 18.24 0 0 0 -.47 -6.17c-.6-2 1.46-1.15-.45-1.93" style="fill:#2f2e41"/><path transform="translate(-79.34 -161.2)" d="m775.8 544.2c-32.67 2-65-7.61-97.66-8.63a48 48 0 0 0 -12.15 .78c-4.2.94-8.12 2.84-12 4.66-17.55 8.16-35.69 14.92-53.82 21.67l-20.82 7.76c-4.16 1.55-8.47 3.12-12.9 2.85-2-.12-4.43-.42-5.54 1.23-3.39 5-1.79 12.39.45 18 .72 1.82 2 3.8 3.9 4 1.37.14 2.65-.65 4-1 3.79-1 7.57 1.54 11.47 1.95 4.82.51 9.29-2.23 13.84-3.91 7.54-2.79 15.79-2.7 23.72-4 13.3-2.22 25.62-8.39 37.14-15.42 4.38-2.68 8.82-5.55 13.86-6.53 5.79-1.13 11.74.36 17.43 2a401.2 401.2 0 0 1 39.94 13.6c6.88 2.76 13.72 5.71 20.88 7.62a75.53 75.53 0 0 0 46.78 -2.73c5.22-2.07 10.91-5.72 11.21-11.36.17-3.22-2.33-6-4-8.8-1.06-1.77-2.13-3.53-3.3-5.23-5.67-8.26-12.51-19.1-22.43-18.51z" style="fill:#2f2e41"/><path transform="translate(-79.34 -161.2)" d="m775.8 544.2c-32.67 2-65-7.61-97.66-8.63a48 48 0 0 0 -12.15 .78c-4.2.94-8.12 2.84-12 4.66-17.55 8.16-35.69 14.92-53.82 21.67l-20.82 7.76c-4.16 1.55-8.47 3.12-12.9 2.85-2-.12-4.43-.42-5.54 1.23-3.39 5-1.79 12.39.45 18 .72 1.82 2 3.8 3.9 4 1.37.14 2.65-.65 4-1 3.79-1 7.57 1.54 11.47 1.95 4.82.51 9.29-2.23 13.84-3.91 7.54-2.79 15.79-2.7 23.72-4 13.3-2.22 25.62-8.39 37.14-15.42 4.38-2.68 8.82-5.55 13.86-6.53 5.79-1.13 11.74.36 17.43 2a401.2 401.2 0 0 1 39.94 13.6c6.88 2.76 13.72 5.71 20.88 7.62a75.53 75.53 0 0 0 46.78 -2.73c5.22-2.07 10.91-5.72 11.21-11.36.17-3.22-2.33-6-4-8.8-1.06-1.77-2.13-3.53-3.3-5.23-5.67-8.26-12.51-19.1-22.43-18.51z" style="opacity:.1"/><path transform="translate(-79.34 -161.2)" d="m610.8 579.2q7.66 2.61 15.48 4.81c2.91-4.78 8.36-8.11 9.6-13.57a.93 .93 0 0 0 -.59 -1.26 28.83 28.83 0 0 0 -12.11 -3.55c-3.36-.21-4.89 3.29-6.42 5.76-.61.99-4.59 8.28-5.96 7.81z" style="fill:#fbbebe"/><path transform="translate(-79.34 -161.2)" d="m618 575.7a11.19 11.19 0 0 1 -7.52 -4.94c-.72-1.26-1.49-3-2.93-2.87s-2 1.69-2.26 3a85.2 85.2 0 0 1 -4.21 14.53 27.27 27.27 0 0 1 -9 11.88c-1.9 1.31-4 2.3-5.86 3.68-1.67 1.23-3.12 2.79-5 3.74a26.67 26.67 0 0 1 -3.8 1.42 26.57 26.57 0 0 0 -5.44 2.65 10.82 10.82 0 0 0 -3.7 3.54 5.17 5.17 0 0 0 -.31 5 5.36 5.36 0 0 0 3.63 2.48 15.47 15.47 0 0 0 4.51 .12c5.95-.44 11.9-1 17.85-1.5a52.18 52.18 0 0 0 7.48 -1c1.31-.32 2.58-.73 3.88-1.07a32.64 32.64 0 0 1 6.8 -1 6 6 0 0 1 2 .18c1.38.45 2.35 1.82 3.78 2.1a6 6 0 0 0 2.69 -.36c4.28-1.17 8.79-1.14 13.22-1.38 2-.1 4.24-.47 5.14-2.22 1.12-2.18-.74-4.62-1.47-7a21.14 21.14 0 0 1 -.62 -4.57 27.81 27.81 0 0 0 -3.28 -10.85c-1.51-2.78-3.58-5.86-2.52-8.85.36-1 1.08-2 1-3-.34-4.79-11.35-3.14-14.06-3.71z" style="fill:#2f2e41"/><path transform="translate(-79.34 -161.2)" d="m726.9 491.8a25.57 25.57 0 0 1 -13 -12.93c-.55-1.24-1-2.53-1.52-3.78a28.86 28.86 0 0 0 -7.78 -10.81 3.76 3.76 0 0 0 -2.89 -1.22 3.1 3.1 0 0 0 -2.12 2.28 9.06 9.06 0 0 0 -.22 3.49 62.43 62.43 0 0 0 1.42 8.16l1.58 7.21a13.25 13.25 0 0 0 1 3.22 11.22 11.22 0 0 0 2.65 3.18c1.45 1.34 2.92 2.63 4.41 3.89a12.37 12.37 0 0 0 7.65 3.4c6.48 1.2 13.08 2.94 18.56 7.17-.07 0 0-4.84-.12-5.39-.25-1.45-.45-2.89-1.39-3.87-2.15-2.2-5.64-2.83-8.23-4z" style="fill:#fbbebe"/><path transform="translate(-79.34 -161.2)" d="m726.9 491.8a25.57 25.57 0 0 1 -13 -12.93c-.55-1.24-1-2.53-1.52-3.78a28.86 28.86 0 0 0 -7.78 -10.81 3.76 3.76 0 0 0 -2.89 -1.22 3.1 3.1 0 0 0 -2.12 2.28 9.06 9.06 0 0 0 -.22 3.49 62.43 62.43 0 0 0 1.42 8.16l1.58 7.21a13.25 13.25 0 0 0 1 3.22 11.22 11.22 0 0 0 2.65 3.18c1.45 1.34 2.92 2.63 4.41 3.89a12.37 12.37 0 0 0 7.65 3.4c6.48 1.2 13.08 2.94 18.56 7.17-.07 0 0-4.84-.12-5.39-.25-1.45-.45-2.89-1.39-3.87-2.15-2.2-5.64-2.83-8.23-4z" style="opacity:.1"/><ellipse cx="714" cy="267.4" rx="7.95" ry="7.99" style="fill:#2f2e41"/><path transform="translate(-79.34 -161.2)" d="m788.5 423.8c-2.15-.24-4.55-.41-6.28.91a8.5 8.5 0 0 0 -2.15 2.92 42.24 42.24 0 0 0 -4.13 9.73c-.71 2.92-.83 6-1.71 8.84-1.63 5.32-5.8 9.81-6.28 15.36-.21 2.48.21 5.39-1.61 7.09a10.14 10.14 0 0 1 -1.42 1 10.8 10.8 0 0 0 -3.13 3.22 10.42 10.42 0 0 1 -2.22 3.07c-1.62 1.2-4.3 1.07-5.1 2.93s1.26 4 .78 6c-.39 1.64-2.22 2.39-3.48 3.51-1.62 1.43-2.36 3.58-3 5.64a18.74 18.74 0 0 1 -15.2 -3.79c2.21 5.46 2.26 11.49 2.36 17.39 0 1.91 0 4.06-1.4 5.39 6.33.14 12.5 1.85 18.67 3.25 2.7.61 5.63 1.14 8.14 0a13.11 13.11 0 0 0 3.73 -3c3.36-3.41 6.88-7.12 7.7-11.85.46-2.64 0-5.36.14-8a45.7 45.7 0 0 1 2 -9.76 115.6 115.6 0 0 0 3.57 -20.08c.36-4.18 4-7.55 5.88-11.3 3.6-7.06 7.27-14.42 7.54-22.35.13-2.62-.77-5.83-3.4-6.12z" style="fill:#2f2e41"/><path transform="translate(-79.34 -161.2)" d="m788.5 423.8c-2.15-.24-4.55-.41-6.28.91a8.5 8.5 0 0 0 -2.15 2.92 42.24 42.24 0 0 0 -4.13 9.73c-.71 2.92-.83 6-1.71 8.84-1.63 5.32-5.8 9.81-6.28 15.36-.21 2.48.21 5.39-1.61 7.09a10.14 10.14 0 0 1 -1.42 1 10.8 10.8 0 0 0 -3.13 3.22 10.42 10.42 0 0 1 -2.22 3.07c-1.62 1.2-4.3 1.07-5.1 2.93s1.26 4 .78 6c-.39 1.64-2.22 2.39-3.48 3.51-1.62 1.43-2.36 3.58-3 5.64a18.74 18.74 0 0 1 -15.2 -3.79c2.21 5.46 2.26 11.49 2.36 17.39 0 1.91 0 4.06-1.4 5.39 6.33.14 12.5 1.85 18.67 3.25 2.7.61 5.63 1.14 8.14 0a13.11 13.11 0 0 0 3.73 -3c3.36-3.41 6.88-7.12 7.7-11.85.46-2.64 0-5.36.14-8a45.7 45.7 0 0 1 2 -9.76 115.6 115.6 0 0 0 3.57 -20.08c.36-4.18 4-7.55 5.88-11.3 3.6-7.06 7.27-14.42 7.54-22.35.13-2.62-.77-5.83-3.4-6.12z" style="opacity:.1"/><path transform="translate(-79.34 -161.2)" d="m781 551.1c-6.8-3.24-11.78-9.27-17.28-14.44-10.5-9.86-23.35-16.84-34.39-26.09-7.32-6.12-13.86-13.26-21.9-18.39a54.54 54.54 0 0 0 -23.43 -8.2 6.45 6.45 0 0 0 -2.87 .14 6.82 6.82 0 0 0 -2.67 2.11 83.93 83.93 0 0 0 -9.46 13c-14 23.75-33.88 43.75-50.35 65.82a3 3 0 0 0 -.2 4l3.35 6.56c1.87 3.68 4.88 8 8.92 7.23 1.85-.34 3.32-1.7 4.68-3l15-14.37 15.77-15.08c9.24-8.83 18.63-17.87 24.66-29.16 4.7 8.16 13.06 13.5 18.79 21 2.18 2.84 4 6 5.9 9 3.12 4.82 6.67 9.35 10.21 13.87l18.09 23.09c2.46 3.14 5 6.36 8.37 8.49 4.29 2.71 9.5 3.43 14.54 3.88a193.6 193.6 0 0 0 20.44 .74c5.2-.09 10.56-.43 15.23-2.74s8.5-7 8.26-12.28a18.21 18.21 0 0 0 -2.61 -7.65c-6.42-11.9-14.87-21.75-27.05-27.53z" style="fill:#2f2e41"/><ellipse cx="718.9" cy="272.9" rx="6.11" ry="6.15" style="fill:#e8e8f0"/><path transform="translate(-79.34 -161.2)" d="m796.9 429.5a11.65 11.65 0 0 1 .67 8.82 34.34 34.34 0 0 1 -3.93 8.14 40.58 40.58 0 0 1 -5.11 7.29c9.43.46 18.58-3.24 26.9-7.73 6.7-3.6 13.38-8.06 17-14.8a7.8 7.8 0 0 1 -6.25 -1.15 23.22 23.22 0 0 1 -4.78 -4.46l-4.74-5.33a21.08 21.08 0 0 1 -2.91 -3.82 10.71 10.71 0 0 1 -1.25 -6.18 35.09 35.09 0 0 1 -6.27 5.2c-3.38 2.2-7.11 3.8-10.5 6-1.2.77-3.88 2-3.19 3.59s3.43 2.75 4.36 4.43z" style="fill:#fbbebe"/><path transform="translate(-79.34 -161.2)" d="m796.9 429.5a11.65 11.65 0 0 1 .67 8.82 34.34 34.34 0 0 1 -3.93 8.14 40.58 40.58 0 0 1 -5.11 7.29c9.43.46 18.58-3.24 26.9-7.73 6.7-3.6 13.38-8.06 17-14.8a7.8 7.8 0 0 1 -6.25 -1.15 23.22 23.22 0 0 1 -4.78 -4.46l-4.74-5.33a21.08 21.08 0 0 1 -2.91 -3.82 10.71 10.71 0 0 1 -1.25 -6.18 35.09 35.09 0 0 1 -6.27 5.2c-3.38 2.2-7.11 3.8-10.5 6-1.2.77-3.88 2-3.19 3.59s3.43 2.75 4.36 4.43z" style="opacity:.1"/><path transform="translate(-79.34 -161.2)" d="m797.1 430.5c-1.77 3-2.15 6.5 0 9.22.27.34 1.26 2.44 1.69 2.46a1.67 1.67 0 0 0 1.08 -.55c2.29-2.09 4-4.76 6-7.13s4.55-4.52 7.61-5c3.69-.57 7.26 1.38 10.49 3.27a10.05 10.05 0 0 1 3.58 2.93 9.63 9.63 0 0 1 1.18 4c1.11 8.41 1.09 16.93 1.06 25.41 0 6.14 0 12.31-1.2 18.33-.6 3.12-1.5 6.17-1.93 9.31a62.84 62.84 0 0 0 -.37 8.35v11.68a29.76 29.76 0 0 0 .45 6.4c.55 2.56 1.76 4.92 2.57 7.41a48.82 48.82 0 0 1 1.71 8.76l1.6 12.09c.5 3.81.87 8-1.43 11-1 1.38-2.41 2.49-3.46 3.87-4 5.14-2.69 12.49-4.34 18.78a23.51 23.51 0 0 1 -7.66 11.75c-2.83 2.4-6.48 4.28-10.11 3.61-4.91-.91-7.86-6-9.2-10.87s-1.82-10.1-4.72-14.18c-2.37-3.34-6-5.44-9.36-7.82s-6.56-5.45-7.28-9.49c-.32-1.76-.12-3.57-.31-5.35a12.65 12.65 0 0 0 -7.82 -10.27c-2.51-1-5.61-1.33-7-3.63 3.66-2.06 6.08-5.87 7.36-9.88s1.54-8.27 1.79-12.47l.84-14.05c.37-6.28.54-12.5 3.31-18.14 1.23-2.53 2.77-4.89 4.06-7.38a83.26 83.26 0 0 0 4.35 -10.83c2-5.76 4-11.52 5.8-17.35a34.58 34.58 0 0 1 3.18 -8.08c1.42-2.44 3.64-5.63 6.48-6.16z" style="fill:#1890ff"/><path transform="translate(-79.34 -161.2)" d="m765.9 521.8 3.72.13.79-5.61a11.73 11.73 0 0 1 .78 -3.28 20.63 20.63 0 0 1 2.14 -3.13c3.66-5.17 3.39-12 4.3-18.31 1.21-8.38 4.71-16.22 8.17-23.93l7.24-16.09a17.6 17.6 0 0 0 2 -8.88c.07-2.49.8-11.53.87-14 0-.92-2-.41-2.45-1.23-.9-1.79-2.14 3.06-3.83 4.12s-2.63 3-3.34 4.86c-1.56 4.05-2.51 8.31-4 12.4s-3.47 8.11-6.74 11c-1.48 1.3-3.18 2.32-4.58 3.71-4.49 4.44-4.93 11.45-5.09 17.78-.08 3.71-.84 40.46.02 40.46z" style="fill:#2f2e41"/><path transform="translate(-79.34 -161.2)" d="m819.4 423.8c-3.61 1.42-5.59 5.34-6.6 9.1s-1.43 7.78-3.37 11.15c-4.54 7.89-16.1 10.19-19.29 18.72-1 2.79-1 5.85-1.29 8.82-.58 6.11-2.59 12-3.18 18.12a79.77 79.77 0 0 0 .33 14.24l4 48.19c.59 7 .57 14.43-1.21 21.19 4.09.79 8.35-.27 12.14-2s7.26-4.11 10.91-6.12c6.28-3.47 13.21-5.92 18.71-10.54a10.79 10.79 0 0 0 2.52 -2.79c1.1-1.9 1.2-4.21 1.72-6.35a34.62 34.62 0 0 1 1.81 -5 148.8 148.8 0 0 0 5.26 -14.86 80.83 80.83 0 0 0 2.41 -10.2c.44-2.74.68-5.52.92-8.29a49.78 49.78 0 0 1 2.56 -12.74 102.2 102.2 0 0 0 5.91 -30.52 15.67 15.67 0 0 0 -.31 -4.49 24.87 24.87 0 0 0 -2.44 -5.1c-1.68-3.16-2.69-6.64-4.27-9.86-3.58-7.25-9.91-12.76-16.53-17.37-3.22-2.25-7.02-4.74-10.71-3.3z" style="fill:#2f2e41"/><path transform="translate(-79.34 -161.2)" d="m734.9 502.4a29.06 29.06 0 0 1 -7.69 -5.85c-1-1.18-1.84-2.51-2.87-3.67a18.84 18.84 0 0 0 -9.68 -5.52 47.34 47.34 0 0 0 -11.21 -1.09 20.57 20.57 0 0 0 -7.46 .9 7.49 7.49 0 0 0 -4.94 5.31c-.55 3 1.41 5.91 3.76 7.84a18.14 18.14 0 0 0 7.52 3.65 61.63 61.63 0 0 0 6.79 .79c13.38 1.4 25.32 8.68 37 15.31q15.45 8.75 31.49 16.34a63.78 63.78 0 0 0 .53 -9.67c-.06-2.41-.18-6.09-2.46-7.51-2.65-1.65-7-2-10-3a161.1 161.1 0 0 1 -20.15 -8.15q-5.41-2.65-10.63-5.68z" style="fill:#fbbebe"/><ellipse transform="rotate(-75.27 649.8 374.2)" cx="794" cy="403.4" rx="23.97" ry="23.84" style="fill:#fbbebe"/><path transform="translate(-79.34 -161.2)" d="m826.2 450.9c-2.13 2.48-3.2 5.68-4.63 8.62-2.94 6.06-7.56 11.26-9.87 17.6-2.44 6.68-2.36 14.62-7.14 19.87-.83.91-1.83 1.79-2.07 3a16 16 0 0 1 -.25 2.19c-.68 1.9-3.8 2-4.38 3.94-.17.57-.08 1.19-.29 1.75-.48 1.25-2.13 1.44-3.24 2.2-2.32 1.57-1.85 5.21-3.5 7.48a6.27 6.27 0 0 1 -6 2.08 21.32 21.32 0 0 1 -6.18 -2.31 5.69 5.69 0 0 0 -2.22 -.69 4.67 4.67 0 0 0 -2.57 .87c-4.4 2.8-6.47 8.35-6.44 13.59s1.83 10.28 3.67 15.18a6.59 6.59 0 0 0 1.22 2.26c1.46 1.54 4 1.3 5.94.44s3.7-2.21 5.78-2.59c3.69-.67 7.3 1.87 11 1.66 2.74-.16 5.17-1.75 7.44-3.29 3.64-2.46 7.34-5 10-8.48 1.64-2.14 2.84-4.57 4.27-6.86a79.39 79.39 0 0 1 6 -8l13.74-16.82a36.3 36.3 0 0 0 3.7 -5.11 35.86 35.86 0 0 0 2.88 -7.68c1.31-4.49 2.63-9 2.85-13.69a54 54 0 0 0 -1 -11.47 39.79 39.79 0 0 0 -3 -10.92c-2.83-6.24-10.1-11.37-15.71-4.82z" style="fill:#2f2e41"/><path transform="translate(-79.34 -161.2)" d="m867.8 440.2a26.83 26.83 0 0 0 -5.12 -23.9c3.65-15.57-4.3-31.16-18.3-36.93.5-14.6-8.75-28-23-31.76-14.81-3.89-30 3.93-36.39 17.83-9-4.67-18.52-4.17-21.66 1.32-3.28 5.74 1.65 14.77 11 20.16a29.33 29.33 0 0 0 9.53 3.53 31 31 0 0 0 17.25 18.26 31.78 31.78 0 0 0 16.4 29.15 26.56 26.56 0 0 0 4.43 11.43 20 20 0 0 0 -.7 2.19c-2.94 11.15 3.42 22.49 14.19 25.32s21.89-3.91 24.82-15.06a21.36 21.36 0 0 0 .4 -9.11 27.1 27.1 0 0 0 7.15 -12.43z" style="fill:#3f3d56"/><path transform="translate(-79.34 -161.2)" d="m769.5 369.7c3.14-5.49 12.65-6 21.66-1.32 6.37-13.9 21.58-21.73 36.39-17.83.67.17 1.33.38 2 .6a30.21 30.21 0 0 0 -8.16 -3.5c-14.81-3.89-30 3.93-36.39 17.83-9-4.67-18.52-4.17-21.66 1.32-3.28 5.74 1.65 14.77 11 20.16a31.31 31.31 0 0 0 5.52 2.5c-8.94-5.46-13.56-14.16-10.36-19.76z" style="opacity:.1"/><path transform="translate(-79.34 -161.2)" d="m827.4 454.4a20 20 0 0 1 .7 -2.19 26.6 26.6 0 0 1 -4.43 -11.44 31.76 31.76 0 0 1 -16.4 -29.14 31 31 0 0 1 -17.25 -18.26 27.58 27.58 0 0 1 -5.71 -1.67 30.89 30.89 0 0 0 16.77 17 31.78 31.78 0 0 0 16.4 29.15 26.56 26.56 0 0 0 4.43 11.43 20 20 0 0 0 -.7 2.19c-2.93 11.11 3.38 22.41 14.09 25.29a20.84 20.84 0 0 1 -7.9 -22.36z" style="opacity:.1"/><ellipse transform="rotate(-37.22 522.2 444.9)" cx="801.3" cy="407.7" rx="3.67" ry="4.91" style="fill:#fbbebe"/><circle cx="431.8" cy="23.05" r="16.29" style="fill:#3f3d56"/><ellipse cx="467.1" cy="59.2" rx="45.69" ry="59.2" style="fill:#3f3d56"/><path transform="translate(-79.34 -161.2)" d="m546.5 261.8c-22.89 0-41.85-21.81-45.18-50.26a77.1 77.1 0 0 0 -.52 8.94c0 32.69 20.46 59.2 45.7 59.2s45.69-26.51 45.69-59.2a77.1 77.1 0 0 0 -.52 -8.94c-3.32 28.49-22.28 50.26-45.17 50.26z" style="opacity:.1"/><path transform="translate(-79.34 -161.2)" d="m643.8 393.8c-1 4-5.21 7.26-9.89 9.51-9.86 4.75-22 6.16-33.79 6.64a56.68 56.68 0 0 1 -9 -.17c-6.17-.73-11.89-3.36-15.46-7.11a2.85 2.85 0 0 1 -1 -1.62 2.88 2.88 0 0 1 1 -2c6.29-6.86 16.77-11.08 27.29-14.08 8-2.31 21.94-8.29 30.67-7.48 8.48.73 11.42 11.21 10.18 16.31z" style="fill:#3f3d56"/><path transform="translate(-79.34 -161.2)" d="m643.8 393.8c-1 4-5.21 7.26-9.89 9.51-9.86 4.75-22 6.16-33.79 6.64a56.68 56.68 0 0 1 -9 -.17c-6.17-.73-11.89-3.36-15.46-7.11a2.85 2.85 0 0 1 -1 -1.62 2.88 2.88 0 0 1 1 -2c6.29-6.86 16.77-11.08 27.29-14.08 8-2.31 21.94-8.29 30.67-7.48 8.48.73 11.42 11.21 10.18 16.31z" style="opacity:.1"/><path transform="translate(-79.34 -161.2)" d="m518.6 363.7a24.94 24.94 0 0 0 -1.51 19 33.23 33.23 0 0 0 11.15 15.78c12.77 10.25 30.29 11.66 46.62 11.53a360.6 360.6 0 0 0 42.82 -2.94c4.73-.61 9.51-1.33 13.89-3.22 5.33-2.31 10-6.54 11.91-12s.56-12.22-4-15.88c-4-3.22-9.43-3.66-14.52-4l-29.15-1.75c2.88-2.92 6.71-4.57 10.22-6.68 4.65-2.82 7.74-7.54 11.13-11.79 5-6.36 11-11.92 17-17.45 1 5.44 4.39 9.91 8.44 13.67s8.72 6.78 12.94 10.35c10.2 8.66 17.54 20.42 28.27 28.42a55.4 55.4 0 0 0 20.27 -10.12l-4.17-7.55a5 5 0 0 0 -1.57 -2c-1.19-.72-2.71-.35-4.08-.55-3.66-.55-5.26-4.78-6.7-8.19-3.94-9.38-11.5-16.65-18-24.51a122.8 122.8 0 0 1 -12.55 -18.57c-2.17-3.91-4.15-8-7.1-11.37s-7.06-6-11.54-6c-4 0-7.6 2-11 4a291.5 291.5 0 0 0 -29.84 20.33c-5 3.86-9.93 7.95-15.77 10.32-2.46 1-5 1.68-7.41 2.89-4.13 2.13-7.27 5.73-10.65 8.92-12.04 11.39-28.53 18.77-45.1 19.36z" style="fill:#605d82"/><path transform="translate(-79.34 -161.2)" d="m579.6 282.6a29.77 29.77 0 0 1 -2.19 10.15 12.65 12.65 0 0 1 -7.28 7 15.61 15.61 0 0 1 -7.1 .23 13.72 13.72 0 0 1 -5.79 -2c-2.73-1.88-4.09-5.23-4.59-8.51s-.27-6.63-.59-9.93a54.53 54.53 0 0 0 -1.52 -7.9c-.21-.86-.43-1.72-.65-2.58s-.41-1.72-.6-2.58-.34-1.61-.48-2.43-.22-1.38-.29-2.07a23.39 23.39 0 0 0 -1 -6.08 18.24 18.24 0 0 0 -2.13 -3.6c-.36-.52-.71-1-1-1.57a7.44 7.44 0 0 1 -1.23 -4.73 4 4 0 0 1 .19 -.76 2.33 2.33 0 0 1 .11 -.28 2.28 2.28 0 0 0 1.55 -1.45 4.33 4.33 0 0 0 -.19 -2.25 14 14 0 0 0 -1.21 -2.89c-.33-.6-1.46-1.69-1.47-2.38 0-1.39 2.7-2.51 3.8-3.06a21.15 21.15 0 0 1 10.86 -2.2c2.4.16 5 .9 6.33 2.92 1.2 1.81 1 4.16 1.55 6.27a1.74 1.74 0 0 0 .37 .84 1.7 1.7 0 0 0 .94 .43 5.6 5.6 0 0 0 1.78 .07 2.54 2.54 0 0 0 .47 -.07 6.3 6.3 0 0 0 2.56 -1.1c.5-.14 1-.24 1.49-.33h.06c2 6.28 2.25 13 3.88 19.42.81 3.18 2 6.32 2.13 9.6v.43c0 1.06-.06 2.12 0 3.17a9.38 9.38 0 0 0 .16 1.4 21.36 21.36 0 0 0 .66 2.2c.07.23.14.46.2.7a4.7 4.7 0 0 1 .12 .51 18.87 18.87 0 0 1 .1 5.41z" style="fill:#fbbebe"/><circle cx="472.3" cy="56.82" r="23.44" style="fill:#fbbebe"/><path transform="translate(-79.34 -161.2)" d="m700.5 345.8a38.47 38.47 0 0 0 -6.61 -17.79l1.83 10.85a4.07 4.07 0 0 1 -4.25 -1.31 13 13 0 0 1 -2.23 -4.14 85 85 0 0 0 -10.37 -18.6c-14.92-1.25-29.68-7.43-42.8-14.65s-25.41-15.85-38.37-23.36a56.27 56.27 0 0 0 -7 -3.58c-4.05-1.62-8.6-2.46-12.44-4.37l-.77-.41a15.48 15.48 0 0 1 -2.46 -1.64 13.36 13.36 0 0 1 -1.17 -1.09 25.74 25.74 0 0 1 -4.5 -7.51c-2.06-4.56-2.8-10.07-4.85-14.63a14.49 14.49 0 0 1 3.15 -2.23l.5-.25a15.31 15.31 0 0 1 2.53 -.92c.5-.14 1-.24 1.49-.33h.06a14.71 14.71 0 0 1 6.94 .55c3.26 1.11 6 3.31 8.76 5.4 4.35 3.29 8.87 6.39 12.82 10.16 2.26 2.17 4.33 4.55 6.76 6.52a53.62 53.62 0 0 0 6.39 4.24l39.54 23.55c4.46 2.65 8.93 5.31 13.29 8.13 6.63 4.27 13 8.9 19.4 13.53l11.29 8.18a12.38 12.38 0 0 1 3.2 3 10.74 10.74 0 0 1 1.41 4.33 39.62 39.62 0 0 1 -1.54 18.37z" style="fill:#fbbebe"/><path transform="translate(-79.34 -161.2)" d="m585.4 300.2c-1.59 7.09-8.75 11.38-12.5 17.61-4.66 7.73-2.76 16.72-1 25.58l-9.59 8.26c-1.76 1.51-3.53 3-5.42 4.37a72.89 72.89 0 0 1 -8.67 5l-8.48 4.36a40.66 40.66 0 0 1 -8.31 3.52c-5.58 1.43-11.5.43-17-1.22a7.58 7.58 0 0 1 -1.86 -.76 3.05 3.05 0 0 1 -.88 -.8 4.89 4.89 0 0 1 -.56 -3.21c.56-9.28 2.83-18.37 5.09-27.39a106.7 106.7 0 0 1 4.81 -15.9 107.2 107.2 0 0 1 6.83 -12.82c3-5.07 6-10.18 10-14.53 1.71-1.88 3.62-3.66 4.64-6 1.41-3.22.86-6.91 1.15-10.41a21.59 21.59 0 0 1 2.06 -7.59 21.76 21.76 0 0 1 2.2 -3.64c.39.9.77 1.8 1.16 2.69l.75 1.76c.33.75.65 1.51 1 2.26q1.4 3.22 2.78 6.45a27 27 0 0 0 4.21 7.51c1.91 2.16 4.72 3.73 7.58 3.42a9.18 9.18 0 0 0 6.46 -4.5 26.56 26.56 0 0 0 2.87 -7.59 24.16 24.16 0 0 0 .32 -9.89c-1-6.33-3.65-12.79-5.6-18.67a18.83 18.83 0 0 1 -1.36 -6.15 3.42 3.42 0 0 1 .07 -.71v-.18a15.31 15.31 0 0 1 2.53 -.92c.5-.14 1-.24 1.49-.33q2.58 14 5.17 27.94c0 .22.09.44.13.66.24 1.34.49 2.67.77 4s.52 2.41.82 3.6c.1.4.21.81.32 1.21.31 1.1.65 2.18 1 3.26 2.44 6.53 6.51 13.04 5.02 19.75z" style="fill:#1890ff"/><path transform="translate(-79.34 -161.2)" d="m680.5 399.9a8.14 8.14 0 0 0 .77 4c1.46 2.68 5 3.29 8 3.54a237.6 237.6 0 0 0 53.37 -1.62 6.25 6.25 0 0 0 2.72 -.85c2.51-1.76 1-6.05-1.78-7.43s-6-1-9-1.63a28.61 28.61 0 0 1 -8.44 -3.66q-9.15-5.26-18-11c-3.53-2.27-7.7-4.69-11.67-3.34-10.79 3.64-16.05 10.38-15.97 21.99z" style="fill:#2f2e41"/><path transform="translate(-79.34 -161.2)" d="m549.3 266l-.09.49-.15.82c-.49 2.52-1.1 5-1.79 7.53-1.91 6.89-4.46 13.68-7 20.36l-20.41 53.8c-1.72 4.52-3.43 9-5.38 13.46-.65 1.47-1.32 3-2 4.46-2.39 5.37-4.69 10.92-5.45 16.65-.5 3.79-1 7.66-.25 11.41s3 7.42 6.61 8.8c1.74.68 4.23 1.59 3.75 3.4-.25 1-1.38 1.48-2.4 1.64a9.19 9.19 0 0 1 -7.53 -2.17c-1.9-1.68-3.37-4.31-5.9-4.59-1.75-.19-3.36.86-5 1.59-6.55 3-14.17.9-21.05-1.23.54-2.78 3.34-4.62 6.11-5.17s5.65-.17 8.49-.24a4.42 4.42 0 0 0 2.58 -.67 4.75 4.75 0 0 0 1.43 -2.34 99.75 99.75 0 0 0 4.05 -16.6c.92-5.9 1.3-11.88 2.6-17.7 1-4.54 2.58-8.94 3.92-13.4a281.4 281.4 0 0 0 6.39 -27.88 98.33 98.33 0 0 0 1.8 -11.82c.23-3.3.12-6.62.44-9.9a76.76 76.76 0 0 1 2.66 -12.62c1.22-4.51 2.43-9 3.65-13.5 1.8-6.66 3.73-13.57 8.29-18.74a17.61 17.61 0 0 1 12.66 -6.05 12.11 12.11 0 0 1 2.69 .29l.44.11a10.6 10.6 0 0 1 2.75 1.14c1.41-.9 2.12-.58 3.06.79a8.87 8.87 0 0 1 1.11 4.8 66.53 66.53 0 0 1 -1.08 13.08z" style="fill:#fbbebe"/><path transform="translate(-79.34 -161.2)" d="m550.9 271.3-.06.06-.32.32-3.19 3.19-1.57-6.58-5.37-22.54a12.11 12.11 0 0 1 2.69 .29 4 4 0 0 1 .19 -.76l.25.87 1.82 6.19 3.45 11.75.57 1.94z" style="fill:#1890ff"/><rect x="450.6" y="22.25" width="50.86" height="31.79" rx="12" style="fill:#3f3d56"/><circle cx="504.4" cy="23.05" r="16.29" style="fill:#3f3d56"/><path transform="translate(-79.34 -161.2)" d="m583.4 168h-.6a16.29 16.29 0 0 1 0 32.55h.6a16.29 16.29 0 0 0 0 -32.58z" style="opacity:.1"/><path transform="translate(-79.34 -161.2)" d="m511.1 168h.6a16.29 16.29 0 0 0 0 32.55h-.6a16.29 16.29 0 1 1 0 -32.58z" style="opacity:.1"/><path transform="translate(-79.34 -161.2)" d="m581.3 212.1h-41.28a4.77 4.77 0 0 1 -4.77 -4.76v3.17a4.78 4.78 0 0 0 4.77 4.77h41.32a4.78 4.78 0 0 0 4.77 -4.77v-3.17a4.78 4.78 0 0 1 -4.81 4.76z" style="opacity:.1"/><path transform="translate(-79.34 -161.2)" d="m721.3 378.8s2.58.45 3-1.64c.21-1-.5-7.42-1.31-13.84-.39-3.16-.81-6.31-1.15-8.83-.41-3.09-.71-5.22-.71-5.22l-.47-1.56-2.78-9.34-2.62-8.8-1.93-3.46-13.89 6.76-8.64 14.93 2.68 1.69.47.3 4.93 5.16 13.82 14.5 6.22 6.53.73.76z" style="fill:#ffe09c"/><path transform="translate(-79.34 -161.2)" d="m710.4 320.2s-15.22 7.14-18.88 14.9c0 0-3.42 6.53-3.85 10 0 0-1 3.17 5.31 3.95 0 0 2.87-11.65 11.48-16.71l8.62-5.05z" style="fill:#e7c4c3"/><ellipse transform="matrix(.26 -.97 .97 .26 118.3 773.5)" cx="707.1" cy="338.8" rx="5.17" ry="4.38" style="fill:#ff7f8e"/><ellipse transform="rotate(-75.08 563.9 326.1)" cx="708.5" cy="355.1" rx="5.17" ry="4.38" style="fill:#ff7f8e"/><path transform="translate(-79.34 -161.2)" d="m698.9 355a5.42 5.42 0 0 0 3.23 -3.75c.74-2.76-.56-5.51-2.9-6.13s-4.83 1.11-5.56 3.87a3.9 3.9 0 0 0 -.13 .57l.47.3z" style="fill:#ff7f8e"/><path transform="translate(-79.34 -161.2)" d="m717.5 348.3a4 4 0 0 0 3.23 -.57l-2.78-9.34a5.38 5.38 0 0 0 -3.36 3.79c-.73 2.79.57 5.5 2.91 6.12z" style="fill:#ff7f8e"/><path transform="translate(-79.34 -161.2)" d="m719.1 364.5a4.22 4.22 0 0 0 3.95 -1.12c-.39-3.16-.81-6.31-1.15-8.83h-.13c-2.34-.63-4.83 1.11-5.57 3.87s.57 5.46 2.9 6.08z" style="fill:#ff7f8e"/><path transform="translate(-79.34 -161.2)" d="m718.9 376a6.12 6.12 0 0 0 .65 -1.55c.74-2.76-.56-5.5-2.9-6.12a4.22 4.22 0 0 0 -4 1.14z" style="fill:#ff7f8e"/><path transform="translate(-79.34 -161.2)" d="m712.1 334.2 1.6.43a9.16 9.16 0 0 0 -1.09 3.75 2.46 2.46 0 0 0 0 .26c.21 1.65-1.6-.43-1.6-.43s.31-3.39 1.09-4.01z" style="fill:#94cc79"/><path transform="translate(-79.34 -161.2)" d="m704.8 344.5 1.61.43a8.93 8.93 0 0 0 -1.09 3.74 2.28 2.28 0 0 0 0 .26c.21 1.65-1.6-.43-1.6-.43s.3-3.39 1.08-4z" style="fill:#94cc79"/><path transform="translate(-79.34 -161.2)" d="m709.8 347.9 1.6.42a9.16 9.16 0 0 0 -1.09 3.75 2.28 2.28 0 0 0 0 .26c.22 1.65-1.6-.43-1.6-.43s.33-3.39 1.09-4z" style="fill:#94cc79"/><path transform="translate(-79.34 -161.2)" d="m716.2 356.5 1.61.42a9 9 0 0 0 -1.09 3.75 2.28 2.28 0 0 0 0 .26c.21 1.65-1.6-.43-1.6-.43s.31-3.39 1.08-4z" style="fill:#94cc79"/><path transform="translate(-79.34 -161.2)" d="m720.2 370.7 1.6.43a9.15 9.15 0 0 0 -1.09 3.74 2.11 2.11 0 0 0 0 .26c.22 1.65-1.6-.42-1.6-.42s.31-3.4 1.09-4.01z" style="fill:#94cc79"/><path transform="translate(-79.34 -161.2)" d="m711.5 360.8 1.6.43a9 9 0 0 0 -1.07 3.79 2.11 2.11 0 0 0 0 .26c.21 1.65-1.6-.42-1.6-.42s.3-3.45 1.07-4.06z" style="fill:#94cc79"/><path transform="translate(-79.34 -161.2)" d="m715.4 321.5s-2.29-5.19-5-1.32a18.36 18.36 0 0 0 3 8.8s8.29 22.55 7.6 26c0 0 3.27 21.78 2.46 23 0 0 .9 1.54 1.54-4.25s-2.17-22.8-2.17-22.8l-4.11-17.68-2.75-6z" style="fill:#e7c4c3"/><path transform="translate(-79.34 -161.2)" d="m715.4 321.5s-2.29-5.19-5-1.32a18.36 18.36 0 0 0 3 8.8s8.29 22.55 7.6 26c0 0 3.27 21.78 2.46 23 0 0 .9 1.54 1.54-4.25s-2.17-22.8-2.17-22.8l-4.11-17.68-2.75-6z" style="fill:#fff;opacity:.2"/><path transform="translate(-79.34 -161.2)" d="m687.8 330.1s4.11 11.84 7.87 8.69l-3-15.47z" style="fill:#fbbebe"/><path transform="translate(-79.34 -161.2)" d="m406.8 378.8s36.25 61.07 44.72 69.23c0 0 36.22 37.6 17.81 35-1.35-.19-27.86-22.6-29.41-26.28s-51.67-68.79-51.67-68.79l7.15-6.58z" style="fill:#a0616a"/><path transform="translate(-79.34 -161.2)" d="m406.8 378.8s36.25 61.07 44.72 69.23c0 0 36.22 37.6 17.81 35-1.35-.19-27.86-22.6-29.41-26.28s-51.67-68.79-51.67-68.79l7.15-6.58z" style="opacity:.1"/><path transform="translate(-79.34 -161.2)" d="m439.9 578.2s-11.6 14.5-6.76 20.3 28.95 16.89 36.73 16.43c8.22-.48 35.77 1 36.74-11.6 0 0 1.93-5.8-23.2-6.77s-17.41-27.07-17.41-27.07z" style="fill:#2f2e41"/><path transform="translate(-79.34 -161.2)" d="m301.7 455.4s-11.6 39.63 23.2 46.4l37.7-1.93s53.17-10.64 67.68-2.9c0 0 5.8 1 3.86 8.7s2.9 59.94 2.9 59.94v17.4s32.87 0 36.74-3.87c0 0-2.9-15.47 0-28s-4.83-52.21-4.83-52.21l-.77-23.81a16.62 16.62 0 0 0 -8.77 -14.32 13 13 0 0 0 -5.93 -1.51s-65.74-10.63-88.94-8.7-62.84 4.81-62.84 4.81z" style="fill:#605d82"/><path transform="translate(-79.34 -161.2)" d="m366.4 328.8s17.4 20.3 19.33 27.07 23.24 24.14 23.24 24.14-15.47 11.6-12.57 17.4-20.3-19.33-20.3-19.33l-27.13-39.61z" style="fill:#1890ff"/><path transform="translate(-79.34 -161.2)" d="m366.4 328.8s17.4 20.3 19.33 27.07 23.24 24.14 23.24 24.14-15.47 11.6-12.57 17.4-20.3-19.33-20.3-19.33l-27.13-39.61z" style="opacity:.1"/><path transform="translate(-79.34 -161.2)" d="m378 305.6s-8.7 28-8.7 38.67-36.74-2.9-35.77-8.7 21.27-27.07 22.24-35.77 22.23 5.8 22.23 5.8z" style="fill:#a0616a"/><path transform="translate(-79.34 -161.2)" d="m349 324.9s-33.84-8.7-38.67 40.61 3.86 55.1-10.64 85.07 98.61 3.87 98.61 3.87-5.8-6.77-24.17-3.87l-8.7-26.1s-2.9-11.6 13.54-11.6 8.7-33.84 8.7-33.84-8.7-29-13.54-31.9-13.5-20.3-25.13-22.24z" style="opacity:.1"/><path transform="translate(-79.34 -161.2)" d="m349 323s-33.84-8.7-38.67 40.6 3.86 55.11-10.64 85.08 98.61 3.87 98.61 3.87-5.8-6.77-24.17-3.87l-8.7-26.1s-2.87-11.58 13.57-11.58 8.7-33.84 8.7-33.84-8.7-29-13.54-31.9-13.53-20.34-25.16-22.26z" style="fill:#1890ff"/><circle cx="290" cy="129.8" r="31.9" style="fill:#a0616a"/><polygon points="349.7 240.6 285.7 284.2 283.8 293.2 364 341.1 438.6 271.6" style="fill:#dadae5"/><polygon points="371.7 152.8 347.1 228.3 436.2 257 473.7 150.6" style="fill:none"/><polygon points="378.4 159 353.5 233.2 436.2 257 471.5 156.7" style="fill:#dadae5"/><polygon points="371.8 153.6 378.6 159.8 471.6 157.4 473.8 151.3" style="opacity:.03"/><polygon points="347.2 229 371.8 153.6 378.6 159.8 354.2 232.1" style="opacity:.03"/><polygon points="371.7 152.8 378.4 159 471.5 156.7 473.7 150.6" style="fill:#eff0f4"/><polygon points="347.1 228.3 371.7 152.8 378.4 159 354.1 231.4" style="fill:#eff0f4"/><polygon points="371.7 152.8 382 162.5 475.1 160.2 473.7 150.6" style="opacity:.03"/><polygon points="347.1 228.3 371.7 152.8 382 162.5 357.7 234.9" style="opacity:.03"/><polygon points="347.3 229.3 349.5 243.7 439 274.7 436.4 258.1" style="opacity:.03"/><polygon points="281.1 276.5 347.3 229.3 350.2 243.7 285.2 292" style="opacity:.03"/><polygon points="347.1 228.3 349 240.6 438.5 271.7 436.2 257" style="fill:#eff0f4"/><polygon points="281 275.4 347.1 228.3 349.7 240.6 284.7 289" style="fill:#eff0f4"/><polygon points="347.1 228.3 349 240.6 438.5 271.7 436.2 257" style="opacity:.03"/><polygon points="281 275.4 347.1 228.3 349.7 240.6 284.7 289" style="opacity:.03"/><polygon points="281 275.4 283.9 293.2 363.9 341 361.9 322.7" style="fill:#cccad6"/><path transform="translate(-79.34 -161.2)" d="m396.7 433.8s-1.39 2.65.73 3.87c1 .58 8.23 2 15.49 3.36 3.56.66 7.13 1.3 10 1.8 3.5.62 5.92 1 5.92 1h1.84l11.12.21 10.46.2 4.43-.91-2.55-17.38-13.24-14.55-2.77 2.34-.47.4-7.28 3.54-20.54 10-9.24 4.5-1.08.53z" style="fill:#ffe09c"/><path transform="translate(-79.34 -161.2)" d="m464.2 442.2s-2.49-19-9.67-25.66c0 0-5.9-6-9.53-7.64 0 0-3.09-2.19-6.13 4.41 0 0 11.67 7.14 14.19 18.25l2.51 11.11z" style="fill:#e7c4c3"/><ellipse transform="rotate(-57.43 258.4 424)" cx="445.2" cy="432.2" rx="5" ry="5.9" style="fill:#ff7f8e"/><ellipse transform="rotate(-57.43 240.1 419.9)" cx="426.9" cy="428.1" rx="5" ry="5.9" style="fill:#ff7f8e"/><path transform="translate(-79.34 -161.2)" d="m430.4 417.7a6.15 6.15 0 0 0 3 4.81c2.74 1.75 6.17 1.29 7.65-1s.47-5.63-2.28-7.38a6.65 6.65 0 0 0 -.58 -.33l-.47.4z" style="fill:#ff7f8e"/><path transform="translate(-79.34 -161.2)" d="m431.2 440.2a4.6 4.6 0 0 0 -.51 3.71l11.12.21a6.1 6.1 0 0 0 -3 -5c-2.7-1.71-6.13-1.24-7.61 1.08z" style="fill:#ff7f8e"/><path transform="translate(-79.34 -161.2)" d="m413.1 436.4a4.78 4.78 0 0 0 -.14 4.68c3.56.66 7.13 1.3 10 1.8l.09-.13c1.48-2.32.46-5.63-2.28-7.38s-6.18-1.29-7.67 1.03z" style="fill:#ff7f8e"/><path transform="translate(-79.34 -161.2)" d="m400.6 432.2a7.09 7.09 0 0 0 1.46 1.24c2.74 1.75 6.17 1.29 7.65-1a4.77 4.77 0 0 0 .13 -4.7z" style="fill:#ff7f8e"/><path transform="translate(-79.34 -161.2)" d="m448.4 439.2-1 1.59a10.31 10.31 0 0 0 -3.69 -2.47l-.29-.07c-1.87-.34 1-1.59 1-1.59s3.59 1.49 3.98 2.54z" style="fill:#94cc79"/><path transform="translate(-79.34 -161.2)" d="m439.8 427.8-1 1.6a10.29 10.29 0 0 0 -3.69 -2.48l-.29-.07c-1.86-.33 1-1.59 1-1.59s3.59 1.49 3.98 2.54z" style="fill:#94cc79"/><path transform="translate(-79.34 -161.2)" d="m434.3 432-1 1.59a10.31 10.31 0 0 0 -3.69 -2.47l-.29-.07c-1.87-.34 1-1.59 1-1.59s3.58 1.47 3.98 2.54z" style="fill:#94cc79"/><path transform="translate(-79.34 -161.2)" d="m422.8 436-1 1.6a10.29 10.29 0 0 0 -3.69 -2.48l-.29-.07c-1.87-.33 1-1.59 1-1.59s3.58 1.45 3.98 2.54z" style="fill:#94cc79"/><path transform="translate(-79.34 -161.2)" d="m406 435.4-1 1.6a10.36 10.36 0 0 0 -3.7 -2.48l-.29-.07c-1.86-.33 1-1.59 1-1.59s3.58 1.48 3.99 2.54z" style="fill:#94cc79"/><path transform="translate(-79.34 -161.2)" d="m419.8 429.4-1 1.59a10.29 10.29 0 0 0 -3.69 -2.48l-.29-.07c-1.87-.33 1-1.59 1-1.59s3.58 1.49 3.98 2.55z" style="fill:#94cc79"/><path transform="translate(-79.34 -161.2)" d="m461 447.2s6.43-.7 3.15-4.93a20.86 20.86 0 0 0 -10.58 .18s-27.37 1.22-30.92-.74c0 0-24.8-4-25.8-5.26 0 0-2 .44 4.08 3.14s25.53 5.52 25.53 5.52l20.63 1.64 7.42-.92z" style="fill:#e7c4c3"/><path transform="translate(-79.34 -161.2)" d="m461 447.2s6.43-.7 3.15-4.93a20.86 20.86 0 0 0 -10.58 .18s-27.37 1.22-30.92-.74c0 0-24.8-4-25.8-5.26 0 0-2 .44 4.08 3.14s25.53 5.52 25.53 5.52l20.63 1.64 7.42-.92z" style="fill:#fff;opacity:.2"/><path transform="translate(-79.34 -161.2)" d="m441.5 437.4a6.16 6.16 0 0 0 .93 5.57c1.88 2.65 5.23 3.51 7.49 1.92s2.55-5 .66-7.7c-.13-.18-.27-.36-.41-.53l-.6.2z" style="fill:#ff7f8e"/><polygon points="361.9 322.7 436.2 257 438.5 271.5 363.9 341" style="fill:#cccad6"/><polygon points="445.8 260.8 436.2 257 473.7 150.6 480.8 155.6" style="fill:#cccad6"/><g style="opacity:.1"><path transform="translate(-79.34 -161.2)" d="m464.9 577.1a33.4 33.4 0 0 1 1.11 -7.62l-.49.17a34 34 0 0 0 -.62 7.45z" style="fill:#fff"/><path transform="translate(-79.34 -161.2)" d="m469.9 613c-7.78.46-31.9-10.64-36.73-16.44a5.07 5.07 0 0 1 -1.12 -2.74 6.06 6.06 0 0 0 1.12 4.68c4.83 5.8 28.95 16.89 36.73 16.43 8.22-.48 35.77 1 36.74-11.6a1.58 1.58 0 0 0 -.13 -1c-2.22 11.58-28.6 10.22-36.61 10.67z" style="fill:#fff"/></g><path transform="translate(-79.34 -161.2)" d="m498.1 378.4s1.72-2 .16-3.44c-.75-.7-6.63-3.38-12.55-6-2.91-1.28-5.84-2.54-8.17-3.54l-4.85-2.07-1.57-.4-9.45-2.41-8.89-2.27-4-.11-1.34 15.39 8.39 15.08 2.82-1.44.49-.25 6.93-1.56 19.58-4.36 8.79-2 1-.23z" style="fill:#ffe09c"/><path transform="translate(-79.34 -161.2)" d="m442.2 357.7s-1.69 16.72 3.1 23.85c0 0 3.84 6.28 6.6 8.44 0 0 2.2 2.48 6.13-2.54 0 0-8.54-8.44-8.45-18.43l.08-10z" style="fill:#e7c4c3"/><ellipse transform="rotate(-44.19 218.2 387.2)" cx="456.4" cy="370" rx="4.38" ry="5.17" style="fill:#ff7f8e"/><ellipse transform="rotate(-44.19 232.9 394.3)" cx="471.2" cy="377.2" rx="4.38" ry="5.17" style="fill:#ff7f8e"/><path transform="translate(-79.34 -161.2)" d="m466.1 385.4a5.41 5.41 0 0 0 -1.56 -4.7c-2-2-5-2.34-6.75-.65s-1.52 4.71.47 6.76a5.25 5.25 0 0 0 .42 .4l.49-.25z" style="fill:#ff7f8e"/><path transform="translate(-79.34 -161.2)" d="m470 366a4 4 0 0 0 1.17 -3.07l-9.45-2.41a5.36 5.36 0 0 0 1.53 4.83c1.96 2.06 4.98 2.35 6.75.65z" style="fill:#ff7f8e"/><path transform="translate(-79.34 -161.2)" d="m484.7 372.9a4.23 4.23 0 0 0 1.07 -4c-2.91-1.28-5.84-2.54-8.17-3.54l-.11.09c-1.73 1.69-1.52 4.72.47 6.77s5.01 2.37 6.74.68z" style="fill:#ff7f8e"/><path transform="translate(-79.34 -161.2)" d="m494.5 379a5.71 5.71 0 0 0 -1 -1.35c-2-2.05-5-2.34-6.74-.65a4.18 4.18 0 0 0 -1.06 4z" style="fill:#ff7f8e"/><path transform="translate(-79.34 -161.2)" d="m455 363.4 1.19-1.15a9.11 9.11 0 0 0 2.66 2.85l.23.12c1.53.66-1.19 1.15-1.19 1.15s-2.72-1.99-2.89-2.97z" style="fill:#94cc79"/><path transform="translate(-79.34 -161.2)" d="m460.2 375 1.18-1.16a9.1 9.1 0 0 0 2.66 2.86l.23.11c1.53.67-1.19 1.16-1.19 1.16s-2.76-2.05-2.88-2.97z" style="fill:#94cc79"/><path transform="translate(-79.34 -161.2)" d="m465.6 372.4 1.19-1.16a9.1 9.1 0 0 0 2.66 2.86l.23.11c1.53.67-1.19 1.16-1.19 1.16s-2.76-1.99-2.89-2.97z" style="fill:#94cc79"/><path transform="translate(-79.34 -161.2)" d="m476.3 371.4 1.19-1.16a9.16 9.16 0 0 0 2.65 2.86l.24.12c1.52.66-1.19 1.15-1.19 1.15s-2.76-1.99-2.89-2.97z" style="fill:#94cc79"/><path transform="translate(-79.34 -161.2)" d="m490.5 375.2 1.19-1.16a9 9 0 0 0 2.65 2.86l.24.11c1.52.67-1.19 1.16-1.19 1.16s-2.76-2-2.89-2.97z" style="fill:#94cc79"/><path transform="translate(-79.34 -161.2)" d="m477.6 377.6 1.19-1.15a9.11 9.11 0 0 0 2.66 2.85 1 1 0 0 0 .23 .12c1.53.66-1.19 1.16-1.19 1.16s-2.76-2-2.89-2.98z" style="fill:#94cc79"/><path transform="translate(-79.34 -161.2)" d="m445.9 354.1s-5.63-.69-3.68 3.58a18.4 18.4 0 0 0 9.07 2s23.61 4.46 26.25 6.84c0 0 20.37 8.38 21 9.68 0 0 1.79 0-2.85-3.51s-20.67-9.86-20.67-9.86l-17.28-5.55-6.52-.71z" style="fill:#e7c4c3"/><path transform="translate(-79.34 -161.2)" d="m445.9 354.1s-5.63-.69-3.68 3.58a18.4 18.4 0 0 0 9.07 2s23.61 4.46 26.25 6.84c0 0 20.37 8.38 21 9.68 0 0 1.79 0-2.85-3.51s-20.67-9.86-20.67-9.86l-17.28-5.55-6.52-.71z" style="fill:#fff;opacity:.2"/><path transform="translate(-79.34 -161.2)" d="m417.1 377.4a29.06 29.06 0 0 0 7.69 -5.85c1-1.18 1.84-2.51 2.87-3.67a18.84 18.84 0 0 1 9.68 -5.52 47.34 47.34 0 0 1 11.21 -1.09 20.57 20.57 0 0 1 7.46 .9 7.49 7.49 0 0 1 4.94 5.31c.55 3-1.41 5.91-3.76 7.84a18.14 18.14 0 0 1 -7.52 3.65 61.63 61.63 0 0 1 -6.79 .79c-13.38 1.4-25.32 8.68-37 15.31-10.3 5.83-16.14 5.56-26.83 10.62-.42-3.2-5.26-.72-5.19-3.95.06-2.41.18-6.09 2.46-7.51 2.65-1.65 7-2 10-3a161.1 161.1 0 0 0 20.15 -8.15q5.41-2.65 10.63-5.68z" style="fill:#a0616a"/><path transform="translate(-79.34 -161.2)" d="m328.7 368.4 51.27 46.4s9.67-19.33 12.57-19.33-34.8-57-34.8-57-9.67-11.6-15.47-5.8-23.24 1.89-13.57 35.73z" style="opacity:.1"/><path transform="translate(-79.34 -161.2)" d="m327.8 366.5 51.24 46.4s9.67-19.34 12.57-19.34-34.81-57-34.81-57-9.67-11.61-15.47-5.81-23.2 1.91-13.53 35.75z" style="fill:#1890ff"/><path transform="translate(-79.34 -161.2)" d="m412.1 284.7a15.4 15.4 0 0 0 2.69 -4.2c4.42-10-2.59-22.56-14.56-26-6-1.75-12.72-1.4-18.71-3.26-4.82-1.49-8.88-4.31-13.3-6.51a56.08 56.08 0 0 0 -26.75 -5.74c-9.05.32-18.89 3.5-22.6 10.49-5.42 10.18 4.55 23-1.49 32.91-4.44 7.28-15.21 9.43-24.14 12.59a65.88 65.88 0 0 0 -24.64 15.27c-7 7-12 16.6-8.48 25.28 2.05 5.09 6.68 9.07 10.36 13.46a43 43 0 0 1 2.69 52.28c-1.72 2.47-3.73 4.88-4.44 7.68-1.7 6.68 5.16 13.4 13.09 14.7s16.16-1.66 22.33-6.03a40.15 40.15 0 0 0 13.31 -15.48c7.33-15.54 2.18-33 1.45-49.73-.09-1.95 0-4.07 1.37-5.6 2.12-2.29 6.12-2.23 9.54-2.53 8.85-.78 17-5.74 20.75-12.58 7.17-13.16-1.18-31.55 11.35-41.45 15.77-12.46 38.47 7.24 50.18-5.55z" style="fill:#3f3d56"/><path transform="translate(-79.34 -161.2)" d="m400.2 254.5h-.1c4.68 5.42 6.44 12.74 3.66 19.06a15.4 15.4 0 0 1 -2.69 4.2c-11.71 12.79-34.41-6.91-50.18 5.55-12.53 9.9-4.18 28.29-11.35 41.45-3.72 6.84-11.9 11.8-20.75 12.58-3.42.3-7.42.24-9.54 2.53-1.41 1.53-1.46 3.65-1.37 5.6.73 16.73 5.88 34.19-1.45 49.73a40.15 40.15 0 0 1 -13.31 15.48c-6.17 4.35-14.39 7.35-22.33 6.05l-.55-.12a17.54 17.54 0 0 0 11.55 7.12c7.94 1.29 16.11-1.71 22.33-6.07a40.15 40.15 0 0 0 13.31 -15.48c7.33-15.54 2.18-33 1.45-49.73-.09-1.95 0-4.07 1.37-5.6 2.12-2.29 6.12-2.23 9.54-2.53 8.85-.78 17-5.74 20.75-12.58 7.17-13.16-1.18-31.55 11.35-41.45 15.77-12.46 38.47 7.24 50.18-5.55a15.4 15.4 0 0 0 2.69 -4.2c4.42-10.03-2.59-22.51-14.56-26.04z" style="opacity:.1"/></g><g transform="translate(0 10.58)"><g transform="translate(-5.511 3.191)"><path transform="matrix(.2646 0 0 .2646 5.511 83.81)" d="m603.2 121.9c-8.814 0-15.91 7.096-15.91 15.91v65.15c0 8.814 7.096 15.91 15.91 15.91h6.299c-1.452 6.568-3.386 14.23.668 16.68 5.636 3.393 14.8-8.189 20.56-11.37 3.375-1.867 9.805-3.2 14.58-5.303h91.74c8.814 0 15.91-7.096 15.91-15.91v-65.15c0-8.814-7.096-15.91-15.91-15.91z" style="fill:#e8e9ed"/><path transform="matrix(.2646 0 0 .2646 5.511 83.81)" d="m603.2 121.9c-8.814 0-15.91 7.096-15.91 15.91v65.15c0 8.814 7.096 15.91 15.91 15.91h6.299c-1.452 6.568-3.386 14.23.668 16.68 5.636 3.393 14.8-8.189 20.56-11.37 3.375-1.867 9.805-3.2 14.58-5.303h91.74c8.814 0 15.91-7.096 15.91-15.91v-65.15c0-8.814-7.096-15.91-15.91-15.91z" style="fill:#e8e9ed"/></g><path d="m197.6 120.2c.1785.2383.3366.4937.4666.7674 0 0 .2861.4726.3504.7369.0709.2912 0 9.652 0 9.652s.0538 9.461 0 9.652c-.0772.2731-.2089.501-.3752.7643-.5453.8635-1.454 1.863-2.34 2.205-.5957.2299-1.447.2496-13.44.3147 0 0-12.22-.0676-12.8.0698-.5667.1336-1.647.5819-1.647.5819-1.723.6091-2.112.8412-3.939 2.346-1.136.9355-2.242 1.564-2.725 1.55-.0484-.001-.1094-.0111-.1736-.0243.1156.2831.2858.4862.5116.5953.1615.078.4142.1456.5612.1499.4818.0139 1.584-.6131 2.716-1.546 1.822-1.5 2.21-1.731 3.927-2.338 0 0 1.096-.3851 1.653-.5452.7565-.2171 12.75-.1044 12.75-.1044 11.87-.0421 12.38.0343 13.4-.3142.883-.3408 1.884-1.283 2.333-2.197 0 0 .3179-.5608.3741-.7622.0563-.2016 0-9.622 0-9.622s.0622-9.352 0-9.622c-.061-.2644-.3493-.7354-.3493-.7354-.2947-.6204-.7236-1.154-1.251-1.575zm-41.08 23.46c.7734.8674 1.852 1.29 3.389 1.333.0883.005 1.265-.0352 1.348-.0291.0473-.2382.1163-.5703.1163-.5963 0-.0445-1.505.0729-2.204.0312-1.01-.0603-1.994-.3636-2.649-.7379z" style="fill:#d7d9e0"/></g><g transform="matrix(.8602 0 0 .8602 88.93 65.89)"><g transform="translate(-5.511 3.191)"><path transform="matrix(.2646 0 0 .2646 5.511 83.81)" d="m603.2 121.9c-8.814 0-15.91 7.096-15.91 15.91v65.15c0 8.814 7.096 15.91 15.91 15.91h6.299c-1.452 6.568-3.386 14.23.668 16.68 5.636 3.393 14.8-8.189 20.56-11.37 3.375-1.867 9.805-3.2 14.58-5.303h91.74c8.814 0 15.91-7.096 15.91-15.91v-65.15c0-8.814-7.096-15.91-15.91-15.91z" style="fill:#e8e9ed"/><path transform="matrix(.2646 0 0 .2646 5.511 83.81)" d="m603.2 121.9c-8.814 0-15.91 7.096-15.91 15.91v65.15c0 8.814 7.096 15.91 15.91 15.91h6.299c-1.452 6.568-3.386 14.23.668 16.68 5.636 3.393 14.8-8.189 20.56-11.37 3.375-1.867 9.805-3.2 14.58-5.303h91.74c8.814 0 15.91-7.096 15.91-15.91v-65.15c0-8.814-7.096-15.91-15.91-15.91z" style="fill:#e8e9ed"/></g><path d="m197.6 120.2c.1785.2383.3366.4937.4666.7674 0 0 .2861.4726.3504.7369.0709.2912 0 9.652 0 9.652s.0538 9.461 0 9.652c-.0772.2731-.2089.501-.3752.7643-.5453.8635-1.454 1.863-2.34 2.205-.5957.2299-1.447.2496-13.44.3147 0 0-12.22-.0676-12.8.0698-.5667.1336-1.647.5819-1.647.5819-1.723.6091-2.112.8412-3.939 2.346-1.136.9355-2.242 1.564-2.725 1.55-.0484-.001-.1094-.0111-.1736-.0243.1156.2831.2858.4862.5116.5953.1615.078.4142.1456.5612.1499.4818.0139 1.584-.6131 2.716-1.546 1.822-1.5 2.21-1.731 3.927-2.338 0 0 1.096-.3851 1.653-.5452.7565-.2171 12.75-.1044 12.75-.1044 11.87-.0421 12.38.0343 13.4-.3142.883-.3408 1.884-1.283 2.333-2.197 0 0 .3179-.5608.3741-.7622.0563-.2016 0-9.622 0-9.622s.0622-9.352 0-9.622c-.061-.2644-.3493-.7354-.3493-.7354-.2947-.6204-.7236-1.154-1.251-1.575zm-41.08 23.46c.7734.8674 1.852 1.29 3.389 1.333.0883.005 1.265-.0352 1.348-.0291.0473-.2382.1163-.5703.1163-.5963 0-.0445-1.505.0729-2.204.0312-1.01-.0603-1.994-.3636-2.649-.7379z" style="fill:#d7d9e0"/></g><g transform="matrix(-1.123 0 0 1.123 251.5 6.286)"><g transform="translate(-5.511 3.191)"><path transform="matrix(.2646 0 0 .2646 5.511 83.81)" d="m603.2 121.9c-8.814 0-15.91 7.096-15.91 15.91v65.15c0 8.814 7.096 15.91 15.91 15.91h6.299c-1.452 6.568-3.386 14.23.668 16.68 5.636 3.393 14.8-8.189 20.56-11.37 3.375-1.867 9.805-3.2 14.58-5.303h91.74c8.814 0 15.91-7.096 15.91-15.91v-65.15c0-8.814-7.096-15.91-15.91-15.91z" style="fill:#e8e9ed"/><path transform="matrix(.2646 0 0 .2646 5.511 83.81)" d="m603.2 121.9c-8.814 0-15.91 7.096-15.91 15.91v65.15c0 8.814 7.096 15.91 15.91 15.91h6.299c-1.452 6.568-3.386 14.23.668 16.68 5.636 3.393 14.8-8.189 20.56-11.37 3.375-1.867 9.805-3.2 14.58-5.303h91.74c8.814 0 15.91-7.096 15.91-15.91v-65.15c0-8.814-7.096-15.91-15.91-15.91z" style="fill:#e8e9ed"/></g><path d="m197.6 120.2c.1785.2383.3366.4937.4666.7674 0 0 .2861.4726.3504.7369.0709.2912 0 9.652 0 9.652s.0538 9.461 0 9.652c-.0772.2731-.2089.501-.3752.7643-.5453.8635-1.454 1.863-2.34 2.205-.5957.2299-1.447.2496-13.44.3147 0 0-12.22-.0676-12.8.0698-.5667.1336-1.647.5819-1.647.5819-1.723.6091-2.112.8412-3.939 2.346-1.136.9355-2.242 1.564-2.725 1.55-.0484-.001-.1094-.0111-.1736-.0243.1156.2831.2858.4862.5116.5953.1615.078.4142.1456.5612.1499.4818.0139 1.584-.6131 2.716-1.546 1.822-1.5 2.21-1.731 3.927-2.338 0 0 1.096-.3851 1.653-.5452.7565-.2171 12.75-.1044 12.75-.1044 11.87-.0421 12.38.0343 13.4-.3142.883-.3408 1.884-1.283 2.333-2.197 0 0 .3179-.5608.3741-.7622.0563-.2016 0-9.622 0-9.622s.0622-9.352 0-9.622c-.061-.2644-.3493-.7354-.3493-.7354-.2947-.6204-.7236-1.154-1.251-1.575zm-41.08 23.46c.7734.8674 1.852 1.29 3.389 1.333.0883.005 1.265-.0352 1.348-.0291.0473-.2382.1163-.5703.1163-.5963 0-.0445-1.505.0729-2.204.0312-1.01-.0603-1.994-.3636-2.649-.7379z" style="fill:#d7d9e0"/></g></g><path d="m191 52.03c-.4284-.2845-.6409-.5587-.5827-1.08.0857-.7575-.2845-1.193-1.011-1.45-3.177-1.124-6.337-2.3-9.522-3.407-.4456-.1542-1.039-.1508-1.488.0034-2.656.9117-5.299 1.871-7.931 2.848-.8534.3153-1.697.5278-2.619.5038-.641-.02056-1.302.0994-1.933.2468-1.614.3667-2.913 1.076-2.732 3.362.024.2913-.1714.6752-.3873.9014-.8912.9323-.9597 2.262-.024 3.133.5313.4936.7198 1.039.7129 1.727-.0172 1.426.4524 2.224 1.817 2.639 1.059.3222 2.2.3736 3.301.5758.2194.04113.5244.1679.5964.3393.3633.8534 1.015 1.422 1.851 1.662 1.285.3667 2.612.5964 3.877.8706 1.32-.2536 2.543-.4319 3.733-.7403.8603-.2228 1.573-.7335 2.056-1.542.1748-.2913.4764-.5895.7883-.7061 2.461-.922 4.939-1.803 7.414-2.697 1.765-.6409 1.775-.6409 1.762-2.536-.003-.4319.0891-.7301.4627-1.021 1.313-1.039 1.254-2.708-.1405-3.633zm-25.94-.7952c1.069-.6135 2.272-.6444 3.469-.6786.4627-.01371.946-.04799 1.374-.1988 2.924-1.032 5.834-2.101 8.754-3.14.2502-.08912.5827-.1371.826-.05141 3.177 1.121 6.344 2.269 9.511 3.414.0377.01371.0651.05827.1885.1817-1.913.6924-3.767 1.364-5.625 2.033-1.162.4182-2.324.8363-3.489 1.248-.3016.1063-.5141.2022-.5587.6204-.0685.6718-.6067 1.08-1.2 1.241-.9905.2742-2.009.5587-3.023.593-1.131.0377-2.272-.1817-3.404-.3359-.3462-.04799-.6855-.2228-.9974-.3976-.9803-.5415-1.134-1.155-.617-2.015-1.018 0-2.091.07198-3.143-.02399-.6992-.0617-1.422-.2673-2.053-.5792-.9631-.4696-.9528-1.371-.0137-1.909zm25.17 3.613c-.9563.3942-2.015.5587-3.04.7438-.4044.07198-.7746.06512-1.052.4456-.1234.1714-.3496.305-.5518.3702-.5827.1817-.97.4798-1.227 1.087-.2982.6992-.7712.5964-1.368-.2056-1.073.5792-2.142 1.158-3.212 1.738-.096.05141-.2331.08911-.2708.1714-.5176 1.158-1.628 1.241-2.653 1.433-.377.07198-.6375.144-.8672.4936-.5792.8774-1.323.8226-1.943-.03085-.1851-.2536-.5038-.4661-.802-.5758-.9906-.353-2.002-.6478-2.999-.9734-.168-.05484-.377-.12-.473-.2468-.5484-.7301-1.395-.6821-2.152-.874-.7198-.1851-1.426-.4044-1.858-1.111-.0925-.1508-.3804-.1817-.5827-.2673-.473-.1988-.9734-.353-1.409-.6101-.4044-.2399-.6204-.6272-.4524-1.244 1.309 1.666 3.085 1.834 4.908 1.841.4113 0 .5827.144.8192.4867.3667.5347.8363 1.124 1.402 1.371 2.831 1.244 5.731 1.251 8.565.02057.6032-.2605 1.011-.9597 1.518-1.443.1988-.1885.4147-.401.6615-.4936 2.595-.9528 5.2-1.871 7.791-2.835.5587-.2091 1.059-.5655 1.628-.8774.5141.5415.4833 1.23-.3804 1.587z" style="fill:#bbbfcb;stroke-width:.03427"/><path d="m239.5 91.59c.2452.0053.374-.1432.4045-.383-.025-.2416-.1539-.3901-.3973-.3848-.2434.0036-.3866.1539-.3812.3973.002.2327.1485.3633.374.3705zm-.2613 3.305c1.374-1.16 3.594-1.566 5.215-.6013.025.01433.0591.01611.0913.02506.0609-.1163.0304-.2344.0304-.3454.002-2.461.009-4.922-.006-7.382 0-.02506.006-.04473.007-.0698-1.265-1.371-3.071-2.235-5.079-2.235-3.814 0-6.917 3.103-6.917 6.917 0 3.42 2.282 6.221 5.546 6.774-.5763-.9718.002-2.146 1.111-3.082zm-4.211-5.892c-.0536.09485-.1181.1825-.1843.2702-.0537.0698-.1235.1396-.2201.102-.1002-.03758-.0966-.1342-.0984-.2237-.003-.136.0447-.2577.1074-.3722.5745-1.059 1.4-1.861 2.464-2.421.009-.0053.0198-.01077.0304-.01253.1772-.04473.3991-.238.5244-.0018.1378.2613-.1664.315-.3168.3955-.9897.5351-1.763 1.281-2.307 2.264zm1.505.5315c-.0483.06085-.1163.1074-.2004.07696-.0877-.034-.086-.1181-.0877-.2165.006-.03222.002-.09306.025-.1396.3096-.6174.7803-1.072 1.41-1.357.0913-.04116.2004-.04653.2631.05906.068.1128.0269.2255-.0716.2863-.5405.3347-.9467.8036-1.339 1.29zm2.996-.2881c1.093.0053 1.944.8698 1.938 1.974-.006 1.097-.8698 1.944-1.976 1.938-1.093-.0053-1.942-.8698-1.936-1.974.006-1.093.8716-1.945 1.974-1.938zm10.77 1.722c-.442-1.052-1.33-1.716-2.325-2.282-.4796-.2738-.9682-.5333-1.464-.7785-.2273-.1127-.3436-.2523-.3025-.5154.0555-.3544-.0412-.6443-.3812-.8179h-.2559c-.3526.145-.4546.408-.4528.7839.0126 2.459.007 4.92.006 7.381 0 .1127.0304.2291-.0304.3454-.034-.009-.0662-.009-.0913-.02505-1.623-.9646-3.978-.5977-5.353.562-1.641 1.383-1.357 3.467.6049 4.29 1.634.6872 3.848.2541 5.102-.9968.5691-.5655.8716-1.224.8608-2.051-.0251-2.097-.006-4.197-.0111-6.294-.002-.2165.0126-.34.2863-.2917.9646.1664 1.836.5226 2.575 1.178.4993.442.8805.9736 1.199 1.575.3687-.9127.1664-1.702.0322-2.062z" style="fill:#bbbfcb;stroke-width:.0179"/><path d="m57.89 68.39c-.2002-.5586-.4795-1.035-.8405-1.428-.3583-.3926-.7983-.7219-1.315-.9881-.5164-.2661-1.093-.5243-1.726-.7746l-1.502-.577c-.2503-.1001-.5006-.2055-.7509-.3135-.2503-.108-.4743-.2424-.6745-.4005-.2002-.1581-.3583-.3504-.4743-.577-.1186-.2266-.1739-.5059-.1739-.8405 0-.4163.07641-.7536.2266-1.014.1502-.2582.3399-.4532.577-.5876.2319-.1344.4953-.2266.7878-.274.2925-.05003.5797-.0764.8616-.0764.4664 0 .8827.02106 1.252.06326.3662.04211.6956.09749.9881.1634.2925.06587.5665.1502.8247.2503.2582.1001.5138.2002.7641.3004.4347-.9327.7009-1.887.801-2.851-.8194-.2846-1.597-.5006-2.34-.6508-.4163-.08431-.8484-.1423-1.299-.1792v-2.319h-3.386v2.55c-.07904.02106-.1581.04212-.2345.06587-.7509.2266-1.391.5612-1.926 1.001-.5349.4426-.9485.9881-1.238 1.639-.2925.6508-.4374 1.402-.4374 2.253 0 .7009.08695 1.302.2635 1.8.1739.5006.4216.9301.7377 1.288.3162.361.7009.6692 1.151.9275.4506.2582.9591.4953 1.526.7114l1.526.577c.3004.1186.5928.2371.8774.361.2846.1238.5375.2793.7641.4637.2266.1844.4084.4084.5507.6745.1396.2661.2108.6007.2108 1.001 0 .801-.3004 1.396-.9011 1.789-.6007.3926-1.428.5876-2.479.5876-.7009 0-1.36-.07117-1.976-.2134-.6165-.1396-1.278-.3557-1.976-.6376-.1844.5349-.3425 1.062-.4743 1.589-.1344.5243-.2266 1.03-.274 1.515.4163.166.8168.3083 1.201.4268.382.1186.772.2134 1.165.2872.3926.0764.8036.1291 1.238.1634.2213.01583.4585.02898.7088.03689v2.197h3.383v-2.506c.1186-.03159.2345-.06587.3478-.1028.8589-.2846 1.581-.6745 2.166-1.175.5823-.5006 1.03-1.101 1.338-1.802.3083-.7009.4637-1.475.4637-2.327-.0053-.8221-.1028-1.507-.303-2.068z" style="fill:#bbbfcb;stroke-width:.02635"/></g></svg>
